<svg xmlns="http://www.w3.org/2000/svg" version="1.1" xmlns:xlink="http://www.w3.org/1999/xlink" width="512" height="512" x="0" y="0" viewBox="0 0 512 512" style="enable-background:new 0 0 512 512" xml:space="preserve" class=""><g><path fill-rule="evenodd" d="m370.779 24 32.314 32.313h-32.314zm-46.755 46.755 32.314 32.313h-32.314zm40.313 348.711v19.779c0 5.508-4.492 10-10 10h-20.755V431.92a116.556 116.556 0 0 0 30.755-12.454zM76.14 62.755c-5.508 0-10 4.492-10 10V93.51h198.987c6.997 0 13.437 2.668 18.384 7.615l42.456 42.456c4.947 4.947 7.615 11.388 7.615 18.384v42.322a116.54 116.54 0 0 1 30.755 12.461v-97.68h-48.313a8 8 0 0 1-8-8V62.755zm201.129 54.754 32.314 32.314h-32.314zm-153.803 41.232c14.88 0 26.943 8.48 26.943 28.038 0 19.557-12.063 35.412-26.943 35.412-14.881 0-26.943-15.855-26.943-35.412s12.063-28.038 26.943-28.038zM68.592 311.189h14.207v-41.887a8 8 0 0 1 16 0v41.887h49.333v-41.887a8 8 0 0 1 16 0v41.887h14.208c2.754 0 5-2.246 5-5v-49.39c0-13.324-11.868-20.891-25.37-24.24-22.672-5.624-45.657-6.005-69.007 0-13.471 3.463-25.37 10.908-25.37 24.24v49.39a5.008 5.008 0 0 0 4.999 5zm-5 102.432h173.82c19.174 13.675 42.641 21.719 67.985 21.719 4.091 0 8.158-.212 12.186-.63V486c0 5.508-4.492 10-10 10H29.386c-5.508 0-10-4.492-10-10V119.509c0-5.508 4.492-10 10-10H261.27v48.314a8 8 0 0 0 8 8h48.314v35.672a118.509 118.509 0 0 0-12.186-.628c-8.543 0-16.869.922-24.893 2.658a7.963 7.963 0 0 0 .872-3.637 8 8 0 0 0-8-8h-51.875a8 8 0 0 0 0 16h43.852c-46.069 16.738-77.193 60.693-77.193 110.215 0 13.439 2.267 26.349 6.432 38.371h-131a8 8 0 0 0 0 16h137.923a117.525 117.525 0 0 0 17.748 25.147H63.592a8 8 0 0 0 0 16zm0 41.146h209.784a8 8 0 0 0 0-16H63.592a8 8 0 0 0 0 16zm241.804-208.542c-39.697 0-71.878 32.181-71.878 71.878 0 39.698 32.181 71.878 71.878 71.878 39.698 0 71.878-32.181 71.878-71.878.001-39.697-32.18-71.878-71.878-71.878zm.001-29.359c-55.911 0-101.237 45.325-101.237 101.237 0 55.911 45.325 101.237 101.237 101.237 25.345 0 48.516-9.314 66.274-24.706l28.254 27.416-1.938 1.997c-3.646 3.758-3.556 9.818.203 13.464l57.518 55.812c3.758 3.646 9.817 3.557 13.464-.202l20.766-21.401c3.647-3.758 3.555-9.816-.203-13.463l-57.518-55.813c-3.758-3.648-9.818-3.556-13.464.202l-.429.442-29.088-28.226c10.981-16.188 17.397-35.723 17.397-56.758 0-55.912-45.325-101.238-101.236-101.238zM122.895 16c-5.508 0-10 4.492-10 10v20.755h198.987c6.996 0 13.437 2.668 18.384 7.615l42.456 42.456c4.947 4.947 7.615 11.388 7.615 18.384v112.742c12.871 10.712 23.415 24.124 30.755 39.371V72.314h-48.313a8 8 0 0 1-8-8V16z" clip-rule="evenodd" fill="#009144" opacity="1" data-original="#000000" class=""></path></g></svg>