<svg xmlns="http://www.w3.org/2000/svg" version="1.1" xmlns:xlink="http://www.w3.org/1999/xlink" width="512" height="512" x="0" y="0" viewBox="0 0 64 64" style="enable-background:new 0 0 512 512" xml:space="preserve" class=""><g><path d="M48 31V11H28v20zM38 21c-1.103 0-2-.897-2-2s.897-2 2-2 2 .897 2 2-.897 2-2 2zm-2.68 2.655A3.892 3.892 0 0 1 37.483 23h1.033a3.89 3.89 0 0 1 2.163.655 3.914 3.914 0 0 1 1.683 2.603L42.82 29h-9.64l.457-2.742a3.917 3.917 0 0 1 1.683-2.603zM30 13h16v16h-1.153l-.512-3.071a5.92 5.92 0 0 0-3.294-4.361A3.96 3.96 0 0 0 42 19c0-2.206-1.794-4-4-4s-4 1.794-4 4c0 .982.369 1.871.959 2.568a5.92 5.92 0 0 0-3.294 4.361L31.153 29H30zM14 17h12v2H14zM14 21h12v2H14zM14 25h12v2H14zM14 29h12v2H14zM14 33h34v2H14zM34 59h14v-8H34zm2-6h10v4H36zM24 57h8v2h-8zM24 53h8v2h-8z" fill="#009144" opacity="1" data-original="#000000" class=""></path><path d="m62.978 52.752-5.775-49.02c-.191-1.698-1.785-2.944-3.48-2.704L25.985 4.854C25.907 2.718 24.156 1 22 1h-2c-2.206 0-4 1.794-4 4v2h-4c-1.103 0-2 .897-2 2v37.586l-7.466 7.465A5.213 5.213 0 0 0 1 57.757 5.249 5.249 0 0 0 6.242 63a5.202 5.202 0 0 0 3.707-1.536l.089-.089A2.002 2.002 0 0 0 12 63h38c1.103 0 2-.897 2-2v-3.165l8.34-1.516a3.237 3.237 0 0 0 2.638-3.567zM18 5c0-1.103.897-2 2-2h2c1.103 0 2 .897 2 2v2h-2V5h-2v2h-2zm0 4h2v3a1.001 1.001 0 0 1-2 0zm5.813 32.399-1.212-1.212 1.818-.606zm-3.333-.505 2.626 2.626-.543 1.629-3.712-3.712zM17 42.414 21.586 47 11 57.586 6.414 53zM6.242 61A3.246 3.246 0 0 1 3 57.757c0-.866.337-1.68.949-2.293L5 54.414 9.586 59l-1.051 1.051A3.22 3.22 0 0 1 6.242 61zM50 61H12v-1.586L23.874 47.54 26.721 39H48v-2H25.838l-9.378 3.126-4.46 4.46V9h4v3c0 1.654 1.346 3 3 3s3-1.346 3-3V9h2v4h2V9h24zm9.982-6.649L52 55.802V9c0-1.103-.897-2-2-2H26v-.128L53.996 3.01a1.088 1.088 0 0 1 1.22.953l5.776 49.029a1.24 1.24 0 0 1-1.01 1.359z" fill="#009144" opacity="1" data-original="#000000" class=""></path></g></svg>