<svg xmlns="http://www.w3.org/2000/svg" version="1.1" xmlns:xlink="http://www.w3.org/1999/xlink" width="512" height="512" x="0" y="0" viewBox="0 0 64 64" style="enable-background:new 0 0 512 512" xml:space="preserve" class=""><g><path d="M50 63H4a1 1 0 0 1-1-1V2a1 1 0 0 1 1-1h33a1 1 0 0 1 .707.293l13 13A1 1 0 0 1 51 15v27a1 1 0 0 1-2 0V15.414L36.586 3H5v58h45a1 1 0 0 1 0 2z" fill="#009144" opacity="1" data-original="#000000" class=""></path><path d="M50 16H37a1 1 0 0 1-1-1V2a1 1 0 0 1 1.707-.707l13 13A1 1 0 0 1 50 16zm-12-2h9.586L38 4.414zM40 22H21a1 1 0 0 1 0-2h19a1 1 0 0 1 0 2zM40 31H21a1 1 0 0 1 0-2h19a1 1 0 0 1 0 2zM40 40H21a1 1 0 0 1 0-2h19a1 1 0 0 1 0 2zM33 49H21a1 1 0 0 1 0-2h12a1 1 0 0 1 0 2zM17 24h-4a1 1 0 0 1-1-1v-4a1 1 0 0 1 1-1h4a1 1 0 0 1 1 1v4a1 1 0 0 1-1 1zm-3-2h2v-2h-2zM17 33h-4a1 1 0 0 1-1-1v-4a1 1 0 0 1 1-1h4a1 1 0 0 1 1 1v4a1 1 0 0 1-1 1zm-3-2h2v-2h-2zM17 42h-4a1 1 0 0 1-1-1v-4a1 1 0 0 1 1-1h4a1 1 0 0 1 1 1v4a1 1 0 0 1-1 1zm-3-2h2v-2h-2zM17 51h-4a1 1 0 0 1-1-1v-4a1 1 0 0 1 1-1h4a1 1 0 0 1 1 1v4a1 1 0 0 1-1 1zm-3-2h2v-2h-2zM49 56a1 1 0 0 1-.707-.293l-4-4a1 1 0 0 1 1.414-1.414L49 53.586l6.293-6.293a1 1 0 0 1 1.414 1.414l-7 7A1 1 0 0 1 49 56z" fill="#009144" opacity="1" data-original="#000000" class=""></path><path d="M50 63a11 11 0 1 1 11-11 11.012 11.012 0 0 1-11 11zm0-20a9 9 0 1 0 9 9 9.01 9.01 0 0 0-9-9z" fill="#009144" opacity="1" data-original="#000000" class=""></path></g></svg>