<svg width="209" height="80" viewBox="0 0 209 80" fill="none" xmlns="http://www.w3.org/2000/svg">
<g clip-path="url(#clip0_434_40)">
<path fill-rule="evenodd" clip-rule="evenodd" d="M4.62913 40.6124L3.771 39.7486C5.29045 38.2017 7.43186 37.228 9.77797 37.228C12.1241 37.228 14.2419 38.186 15.7692 39.7251L14.8953 40.581C13.6042 39.2618 11.7698 38.453 9.77797 38.453C7.78614 38.453 5.9439 39.2618 4.62913 40.6124ZM7.6523 43.5021L6.83353 42.7247C7.57357 41.9473 8.6364 41.484 9.78584 41.484C10.9353 41.484 11.9666 41.9552 12.7224 42.7247L11.9194 43.5021C11.3761 42.9681 10.6046 42.6226 9.78584 42.6226C8.9277 42.6226 8.18765 42.9681 7.6523 43.5021ZM9.78584 45.6065L8.25851 44.1146C8.64428 43.7612 9.21112 43.4707 9.78584 43.4707C10.3606 43.4707 10.9117 43.7534 11.2974 44.1146L9.78584 45.6065ZM9.78584 40.6124C11.1793 40.6124 12.4547 41.1699 13.3444 42.1201L14.297 41.1699C13.1554 40.0078 11.5415 39.2696 9.78584 39.2696C8.0302 39.2696 6.42414 40.0078 5.24322 41.1699L6.18795 42.1279C7.11695 41.1699 8.3766 40.6124 9.77797 40.6124" fill="#0E6EB6"/>
<path fill-rule="evenodd" clip-rule="evenodd" d="M4.1095 46.6118H15.3283C7.28225 66.9102 5.89664 78.8066 14.045 78.4925C-3.86567 79.5447 -1.54319 62.1909 4.11738 46.6118" fill="#0E6EB6"/>
<path fill-rule="evenodd" clip-rule="evenodd" d="M14.4229 15.4772C24.6733 -1.14628 41.2535 -2.85025 53.0785 3.20394C66.1946 9.93342 70.2413 25.5047 66.974 39.1757C64.1005 51.6452 55.8655 63.039 45.2214 70.3653C38.7736 74.7312 31.4518 77.6602 23.5318 78.9637C29.4836 77.1576 34.8057 73.4513 38.9704 68.8969C41.5369 66.1172 43.8437 62.9448 45.6229 59.6861C51.685 51.5746 54.4484 43.6201 54.6531 36.6865C55.0467 27.3971 50.9922 18.1784 42.4344 13.9224C34.9867 10.1454 24.9568 10.3417 14.415 15.4772" fill="#F26329"/>
<path fill-rule="evenodd" clip-rule="evenodd" d="M6.6919 34.2363C15.0371 17.7621 32.2235 16.5921 42.3479 23.7299C46.4261 26.5881 49.0162 30.6557 50.2208 35.5006C51.5985 41.5705 50.5987 47.8916 48.3155 53.8437C46.3316 59.1991 43.0644 64.5308 38.9862 68.8967C33.2233 75.2493 24.9726 80.0942 16.1393 80C12.754 80 9.37654 79.2069 6.11719 77.2988C10.2819 79.3011 16.7613 78.5944 20.7213 77.0161C27.2715 74.3384 32.5384 68.7868 35.8135 62.6462C39.868 55.1237 43.0644 43.0389 36.6008 36.0817C30.7355 29.6427 19.0365 27.4598 6.69978 34.2285" fill="#09A14A"/>
<path d="M202.725 43.6826L204.709 38.0053C204.473 37.9896 204.221 37.9661 204.009 37.9661C202.639 37.9661 201.529 38.3901 200.663 39.2617C199.797 40.1176 199.206 41.1698 198.946 42.4419C198.773 43.1486 198.805 43.6983 199.002 44.1145C199.214 44.5149 199.568 44.727 200.088 44.727C200.891 44.727 201.781 44.3736 202.733 43.6826M209.008 35.4454L204.89 47.1219H201.513L201.899 46.0147C200.671 46.8942 199.482 47.3575 198.34 47.3575C197.199 47.3575 196.356 46.8706 195.813 45.9205C195.246 44.9547 195.16 43.7533 195.49 42.2456C195.963 40.1176 197.041 38.3822 198.765 37.0552C200.458 35.6967 202.647 35.0371 205.276 35.0371C206.599 35.0371 207.843 35.1628 209.008 35.4376M195.238 35.2491L191.058 47.1141H187.68L191.877 35.2491H195.246H195.238ZM192.939 31.9354C193.034 31.4329 193.278 31.0246 193.695 30.6476C194.128 30.3178 194.585 30.1215 195.049 30.1215C195.537 30.1215 195.907 30.3178 196.175 30.6476C196.459 31.0246 196.522 31.4329 196.411 31.9354C196.309 32.438 196.041 32.8699 195.616 33.2625C195.191 33.5844 194.75 33.765 194.246 33.765C193.774 33.765 193.428 33.5923 193.136 33.2625C192.876 32.8699 192.798 32.4301 192.939 31.9354ZM182.327 44.3186L184.492 38.1702C184.216 38.1231 183.949 38.1074 183.65 38.1074C182.461 38.1074 181.429 38.4608 180.587 39.1282C179.705 39.8271 179.186 40.6594 178.949 41.6802C178.784 42.5204 178.894 43.2114 179.319 43.7061C179.752 44.2244 180.445 44.4678 181.366 44.4678C181.618 44.4678 181.917 44.405 182.327 44.3265M191.003 29.2735L184.775 46.9492C183.264 47.2083 181.933 47.3496 180.8 47.3496C178.776 47.3496 177.288 46.8314 176.328 45.787C175.359 44.7741 175.1 43.3763 175.485 41.6488C175.871 39.8271 176.847 38.2566 178.414 36.961C179.965 35.6575 181.823 35.0293 183.949 35.0293C184.311 35.0293 184.838 35.0607 185.57 35.1549L187.641 29.2735H191.003ZM167.967 35.2491L167.455 36.5762C168.959 35.5475 170.368 35.0293 171.675 35.0293C172.651 35.0293 173.344 35.3512 173.73 35.9951C174.123 36.6154 174.194 37.5263 173.927 38.6806C173.856 39.0183 173.753 39.3873 173.635 39.7407L171.045 47.1141H167.683L170.171 40.0312C170.258 39.8349 170.329 39.6308 170.376 39.4109C170.612 38.2409 170.392 37.6677 169.691 37.6677C168.912 37.6677 167.817 38.2566 166.471 39.4894L163.771 47.1141H160.393L164.605 35.2491H167.983H167.967ZM163.164 29.2735L156.843 47.1141H153.221L159.535 29.2735H163.157H163.164ZM149.151 29.2735L142.845 47.1141H139.499L145.797 29.2735H149.151ZM134.208 43.6747L136.176 37.9975C135.94 37.9818 135.688 37.9582 135.476 37.9582C134.106 37.9582 133.004 38.3822 132.145 39.2538C131.264 40.1098 130.697 41.162 130.421 42.4341C130.248 43.1408 130.28 43.6904 130.492 44.1066C130.697 44.5071 131.043 44.7191 131.563 44.7191C132.366 44.7191 133.24 44.3657 134.216 43.6747M140.483 35.4376L136.35 47.1141H132.988L133.381 46.0069C132.114 46.8864 130.941 47.3496 129.831 47.3496C128.721 47.3496 127.839 46.8628 127.28 45.9127C126.745 44.9468 126.619 43.7454 126.957 42.2378C127.422 40.1098 128.508 38.3744 130.232 37.0473C131.933 35.6889 134.114 35.0293 136.759 35.0293C138.058 35.0293 139.31 35.1549 140.483 35.4297M125.855 32.7442L124.839 35.2491H127.319L126.304 37.8404H123.808L122.328 41.7038C122.186 42.0179 122.108 42.3163 122.045 42.6147C121.801 43.6747 122.045 44.1851 122.73 44.1851C123.115 44.1851 123.816 43.9496 124.816 43.4706L124.131 46.588C123.037 47.1062 122.013 47.3654 121.076 47.3654C119.966 47.3654 119.195 46.9806 118.707 46.2739C118.226 45.5279 118.14 44.5778 118.384 43.4156C118.486 43.078 118.588 42.7324 118.707 42.3869L120.509 37.8561H118.226L119.218 35.2648H121.517L122.47 32.7599H125.871L125.855 32.7442ZM117.604 35.2491L113.4 47.1141H110.039L114.227 35.2491H117.604ZM115.282 31.9354C115.392 31.4329 115.644 31.0246 116.053 30.6476C116.486 30.3178 116.919 30.1215 117.415 30.1215C117.911 30.1215 118.274 30.3178 118.549 30.6476C118.793 31.0246 118.888 31.4329 118.785 31.9354C118.667 32.438 118.399 32.8699 117.99 33.2625C117.549 33.5844 117.093 33.765 116.628 33.765C116.164 33.765 115.762 33.5923 115.518 33.2625C115.242 32.8699 115.164 32.4301 115.282 31.9354ZM104.323 49.7289C104.433 49.1793 103.984 48.7709 102.992 48.5589L101.583 48.2213C101.245 48.2213 100.812 48.3233 100.245 48.5589C99.6464 48.7788 99.3079 49.14 99.1977 49.619C99.0245 50.4513 99.7645 50.8518 101.434 50.8518C102.363 50.8518 103.04 50.7576 103.504 50.5927C103.961 50.4513 104.221 50.1215 104.323 49.7289ZM104.181 41.8765C105.401 41.8765 106.189 41.0128 106.567 39.3167C106.669 38.7827 106.637 38.3744 106.433 38.0838C106.212 37.7776 105.85 37.6284 105.378 37.6284C104.15 37.6284 103.339 38.4843 102.929 40.2354C102.701 41.3112 103.103 41.8765 104.173 41.8765M112.298 35.2413L111.401 37.8326H109.598C109.724 38.4765 109.724 39.0889 109.598 39.7328C109.314 40.9578 108.677 41.9943 107.637 42.811C106.59 43.6433 105.331 44.0595 103.898 44.0595C103.173 44.0595 102.622 44.0909 102.292 44.1694C101.969 44.2244 101.772 44.405 101.717 44.7034C101.678 44.8447 101.741 44.9704 101.937 45.1274C102.095 45.2138 102.898 45.3866 104.307 45.63C105.701 45.8734 106.645 46.266 107.126 46.9021C107.622 47.5224 107.763 48.3076 107.566 49.2342C107.008 51.7941 104.772 53.0976 100.867 53.0976C99.0953 53.0976 97.8042 52.8228 97.009 52.2966C96.2217 51.7784 95.9226 51.0717 96.1115 50.1529C96.3713 49.0222 97.4893 48.1035 99.489 47.5067C98.5678 46.957 98.2136 46.2346 98.4104 45.3002C98.6544 44.2008 99.5755 43.4706 101.174 43.1172C100.04 42.2927 99.6464 41.162 99.9534 39.6936C100.237 38.4843 100.922 37.4478 102.071 36.5605C103.181 35.6732 104.472 35.2334 105.96 35.2334H112.306L112.298 35.2413ZM98.8749 35.2413L94.6708 47.1062H91.3091L95.4896 35.2413H98.8749ZM96.5366 31.9276C96.6469 31.425 96.9224 31.0167 97.3397 30.6398C97.7727 30.31 98.2136 30.1137 98.6859 30.1137C99.1583 30.1137 99.5441 30.31 99.8196 30.6398C100.079 31.0167 100.158 31.425 100.032 31.9276C99.922 32.4301 99.6543 32.862 99.2528 33.2546C98.8276 33.5766 98.3868 33.7572 97.875 33.7572C97.4027 33.7572 97.0405 33.5844 96.7728 33.2546C96.513 32.862 96.4422 32.4223 96.5366 31.9276ZM81.7121 32.2338L77.5553 44.1223H80.9406C82.7198 44.1223 84.2393 43.5412 85.4832 42.3712C86.7586 41.2091 87.5931 39.7093 87.9789 37.9189C88.3489 36.2542 88.1127 34.8565 87.3254 33.8279C86.5145 32.7756 85.2313 32.2338 83.4677 32.2338H81.7121ZM79.1692 29.2656H84.8219C87.6718 29.2656 89.6715 30.0823 90.8288 31.6842C91.9783 33.3174 92.2696 35.3983 91.7185 37.9504C91.1359 40.5966 89.8762 42.7717 87.971 44.4992C86.0422 46.2582 83.9716 47.1062 81.6727 47.1062H72.8945L79.1771 29.2656H79.1692Z" fill="white"/>
<path fill-rule="evenodd" clip-rule="evenodd" d="M74.3037 59.3166H76.2483C76.8545 59.3166 77.5316 59.1675 78.0197 58.7513C78.4685 58.3822 78.6417 57.8561 78.6417 57.275C78.6417 56.694 78.4685 56.1678 78.0197 55.7752C77.5316 55.3355 76.8545 55.2334 76.2483 55.2334H74.3037V59.3088V59.3166ZM74.3037 60.3924V64.9311H73.1543V54.1733H75.9885C76.9726 54.1733 78.0355 54.3618 78.8227 54.9743C79.547 55.5711 79.8698 56.3642 79.8698 57.2829C79.8698 58.2016 79.547 59.0026 78.8227 59.5758C78.0355 60.2118 76.9726 60.4081 75.9885 60.4081H74.2959L74.3037 60.3924Z" fill="white"/>
<path fill-rule="evenodd" clip-rule="evenodd" d="M84.507 63.8789C85.247 63.8789 85.869 63.6041 86.3965 63.0623C86.9239 62.4969 87.1837 61.8451 87.1837 61.0677C87.1837 60.2904 86.9239 59.6072 86.3965 59.0811C85.869 58.5157 85.247 58.233 84.507 58.233C83.7197 58.233 83.1056 58.5157 82.5939 59.0811C82.0664 59.5994 81.8066 60.2904 81.8066 61.0677C81.8066 61.8451 82.0664 62.5047 82.5939 63.0623C83.1056 63.6119 83.7197 63.8789 84.507 63.8789ZM84.507 64.9468C83.4363 64.9468 82.4994 64.6249 81.7751 63.8553C81.0114 63.0858 80.6965 62.1121 80.6965 61.0599C80.6965 60.0077 81.0114 59.0104 81.7751 58.2566C82.5073 57.5028 83.4363 57.1494 84.507 57.1494C85.5777 57.1494 86.4909 57.5028 87.2231 58.2566C87.9789 59.0183 88.2938 59.9998 88.2938 61.0599C88.2938 62.12 87.9789 63.078 87.2231 63.8553C86.4909 64.6249 85.5541 64.9468 84.507 64.9468Z" fill="white"/>
<path fill-rule="evenodd" clip-rule="evenodd" d="M92.8284 62.9996L94.9541 57.0161H95.6548L97.8198 62.9918L100.087 57.126H101.142L98.1032 64.9392H97.4104L95.2848 59.0813L93.1276 64.9392H92.4427L89.4116 57.126H90.5689L92.8284 62.9996Z" fill="white"/>
<path fill-rule="evenodd" clip-rule="evenodd" d="M107.582 60.1102C107.504 59.694 107.346 59.3092 107.078 58.9873C106.653 58.4612 106.079 58.257 105.409 58.257C104.74 58.257 104.244 58.5632 103.811 59.0344C103.559 59.372 103.394 59.7175 103.268 60.1102H107.582ZM103.134 61.0367C103.134 61.8063 103.425 62.4737 103.961 62.9998C104.512 63.5652 105.181 63.8322 105.953 63.8322C106.425 63.8322 106.866 63.7537 107.291 63.5966C107.756 63.4317 108.157 63.1569 108.551 62.8585L108.803 62.6465V63.8557L108.724 63.8872C108.33 64.217 107.905 64.5153 107.401 64.696C106.945 64.8923 106.433 64.9394 105.937 64.9394C104.85 64.9394 103.89 64.6331 103.126 63.8636C102.355 63.0941 102.032 62.1596 102.032 61.076C102.032 59.9924 102.284 59.0736 102.977 58.2649C103.614 57.5267 104.425 57.1655 105.409 57.1655C106.394 57.1655 107.291 57.4404 107.921 58.1942C108.566 58.9402 108.763 59.9139 108.787 60.8561L108.81 61.0132H103.142L103.134 61.0367Z" fill="white"/>
<path fill-rule="evenodd" clip-rule="evenodd" d="M112.306 58.2645C113.007 57.1417 114.298 56.5998 115.55 57.3301C115.581 57.3301 115.613 57.3537 115.62 57.3851V58.6179C115.55 58.5786 115.62 58.6415 115.526 58.5943C113.747 57.6049 112.66 59.0262 112.306 59.9921V64.9077H111.212V57.0788H112.306V58.2724V58.2645Z" fill="white"/>
<path fill-rule="evenodd" clip-rule="evenodd" d="M123.603 55.2648H120.124V54.2754H128.24V55.2648H124.768V64.8133H123.603V55.2648Z" fill="white"/>
<path fill-rule="evenodd" clip-rule="evenodd" d="M142.506 55.43V58.8772H146.899V59.898H142.506V63.7535H147.71V64.7822H141.349V54.4014H147.513V55.43H142.506Z" fill="white"/>
<path fill-rule="evenodd" clip-rule="evenodd" d="M150.875 58.1152C151.457 57.4635 152.158 57.0708 153.056 57.0708C153.859 57.0708 154.559 57.33 155.11 57.9032C155.284 58.1074 155.433 58.2723 155.559 58.5157L155.717 58.2566C156.315 57.5341 157.079 57.063 158.039 57.063C158.858 57.063 159.551 57.3221 160.094 57.8953C160.661 58.4607 160.873 59.2224 160.873 60.0233V64.6719H159.732V60.0704C159.732 59.5522 159.606 59.0732 159.236 58.6649C158.882 58.2644 158.441 58.1309 157.921 58.1309C157.205 58.1309 156.685 58.5314 156.268 59.0104C156.126 59.1517 155.992 59.3245 155.89 59.4972V64.6719H154.748V60.0704C154.748 59.5522 154.63 59.0732 154.252 58.6649C153.882 58.2644 153.449 58.1309 152.938 58.1309C152.237 58.1309 151.686 58.5314 151.269 59.0104C151.119 59.1517 151.024 59.3245 150.883 59.4972V64.6719H149.773V57.2122H150.883V58.0995L150.875 58.1152Z" fill="white"/>
<path d="M163.314 57.2281H164.456V58.1704C164.668 57.7621 165.093 57.4873 165.518 57.3302C166.872 56.8512 168.526 57.024 169.541 58.1154C170.951 59.733 170.872 62.3322 169.581 63.777C168.211 65.269 166.203 64.9313 164.566 64.0675C164.511 64.0283 164.479 64.0126 164.456 63.9969V67.6325H163.314V57.2203V57.2281ZM167.912 58.5866C166.967 57.9741 165.589 58.1154 164.479 59.5995V62.6384C165.636 63.8791 167.132 63.9969 168.124 63.2745C169.581 62.1987 169.502 59.576 167.912 58.5787" fill="white"/>
<path d="M92.1279 48.9126H70.5564V50.1533H92.1279V48.9126Z" fill="white"/>
<path d="M207.638 48.9126H109.495V50.1533H207.638V48.9126Z" fill="white"/>
<path fill-rule="evenodd" clip-rule="evenodd" d="M131.342 63.6829C132.098 63.6829 132.736 63.4081 133.232 62.8663C133.752 62.3166 134.035 61.6492 134.035 60.8796C134.035 60.1101 133.752 59.4427 133.232 58.8773C132.736 58.3119 132.098 58.0606 131.342 58.0606C130.587 58.0606 129.965 58.3119 129.437 58.8773C128.902 59.4427 128.65 60.118 128.65 60.8796C128.65 61.6413 128.902 62.3166 129.437 62.8663C129.957 63.4081 130.595 63.6829 131.342 63.6829ZM131.342 64.7587C130.295 64.7587 129.351 64.4211 128.611 63.6672C127.847 62.8899 127.532 61.9319 127.532 60.8796C127.532 59.8274 127.855 58.838 128.611 58.0921C129.343 57.3225 130.287 56.9849 131.342 56.9849C132.397 56.9849 133.35 57.3225 134.059 58.0921C134.814 58.838 135.153 59.8196 135.153 60.8796C135.153 61.9397 134.814 62.8899 134.059 63.6672C133.326 64.4289 132.374 64.7587 131.342 64.7587Z" fill="white"/>
<path fill-rule="evenodd" clip-rule="evenodd" d="M175.785 63.6829C176.532 63.6829 177.154 63.4081 177.674 62.8663C178.194 62.3166 178.461 61.6492 178.461 60.8796C178.461 60.1101 178.194 59.4427 177.674 58.8773C177.154 58.3119 176.532 58.0606 175.785 58.0606C175.037 58.0606 174.407 58.3119 173.895 58.8773C173.344 59.4427 173.092 60.118 173.092 60.8796C173.092 61.6413 173.352 62.3166 173.895 62.8663C174.407 63.4081 175.052 63.6829 175.785 63.6829ZM175.785 64.7587C174.706 64.7587 173.777 64.4211 173.053 63.6672C172.281 62.8899 171.974 61.9319 171.974 60.8796C171.974 59.8274 172.281 58.838 173.053 58.0921C173.777 57.3225 174.706 56.9849 175.785 56.9849C176.863 56.9849 177.784 57.3225 178.516 58.0921C179.249 58.838 179.579 59.8196 179.579 60.8796C179.579 61.9397 179.249 62.8899 178.516 63.6672C177.776 64.4289 176.84 64.7587 175.785 64.7587Z" fill="white"/>
<path fill-rule="evenodd" clip-rule="evenodd" d="M184.114 63.0862L186.248 57.0791H186.964L189.09 63.0783L191.365 57.1969H192.451L189.412 65.0021H188.72L186.578 59.16L184.445 65.0021H183.744L180.705 57.1969H181.855L184.114 63.0862Z" fill="white"/>
<path fill-rule="evenodd" clip-rule="evenodd" d="M198.876 60.1102C198.789 59.694 198.655 59.3092 198.372 58.9873C197.954 58.4612 197.372 58.257 196.711 58.257C196.049 58.257 195.522 58.5632 195.12 59.0344C194.868 59.372 194.679 59.7175 194.577 60.1102H198.876ZM194.435 61.0367C194.435 61.8063 194.727 62.4737 195.262 62.9998C195.829 63.5652 196.474 63.8322 197.238 63.8322C197.695 63.8322 198.151 63.7537 198.576 63.5966C199.033 63.4317 199.466 63.1569 199.82 62.8585L200.096 62.6465V63.8557L200.041 63.8872C199.647 64.217 199.19 64.5153 198.694 64.696C198.23 64.8923 197.726 64.9394 197.214 64.9394C196.136 64.9394 195.191 64.6331 194.412 63.8636C193.656 63.0941 193.325 62.1596 193.325 61.076C193.325 59.9924 193.585 59.0736 194.262 58.2649C194.916 57.5267 195.726 57.1655 196.711 57.1655C197.695 57.1655 198.561 57.4404 199.206 58.1942C199.86 58.9402 200.064 59.9139 200.088 60.8561V61.0132H194.435V61.0367Z" fill="white"/>
<path fill-rule="evenodd" clip-rule="evenodd" d="M203.591 58.1859C204.292 57.0788 205.575 56.5369 206.827 57.2594C206.866 57.2594 206.882 57.2908 206.914 57.2986V58.5707C206.819 58.4686 206.906 58.5943 206.819 58.5157C205.032 57.5185 203.953 58.9555 203.599 59.8978V64.8134H202.505V57.0081H203.599V58.1859H203.591Z" fill="white"/>
</g>
<defs>
<clipPath id="clip0_434_40">
<rect width="209" height="80" fill="white"/>
</clipPath>
</defs>
</svg>
