<svg xmlns="http://www.w3.org/2000/svg" viewBox="0 0 414.9 235.44" width="414.9" height=" 235.44"><defs><style>.cls-1{fill:#fbcb34;}.cls-2{fill:#404041;}.cls-3{fill:#808184;}.cls-4{fill:none;}.cls-5{fill:#c1902d;}</style></defs><g id="Layer_2" data-name="Layer 2"><g id="Layer_1-2" data-name="Layer 1"><path d="M263.7,77.77C267.41,86.83,278,82,278,88.33v16h17.83V77.77c3.71,9.06,14.27,4.21,14.27,10.56v47.93H295.79v-23.4H278v23.4H263.7Z"/><path d="M400.64,93.47H385.52V82.77H414.9v44.36c0,16.83-26.89,2.28-35.16,14.9v-8.2c0-10.13,20.9-3.28,20.9-11.69Z"/><path d="M278.12,171.14a10.44,10.44,0,0,1,4.44,4.21,12.62,12.62,0,0,1,1.57,6.4,12.36,12.36,0,0,1-1.57,6.35,10.36,10.36,0,0,1-4.44,4.12,15,15,0,0,1-6.71,1.43h-7.83v-24h7.83A14.71,14.71,0,0,1,278.12,171.14Zm-.26,17a8.79,8.79,0,0,0,2.24-6.42,9.07,9.07,0,0,0-2.24-6.52,8.53,8.53,0,0,0-6.45-2.34h-3.9v17.55h3.9A8.7,8.7,0,0,0,277.86,188.17Z"/><path d="M291.79,172.85v7h8.28v3.2h-8.28v7.35h9.31v3.21H287.86v-24H301.1v3.21Z"/><path d="M326.42,169.68l-9,24h-4.55l-9-24H308l7.1,19.93,7.14-19.93Z"/><path d="M333.46,169.68v24h-3.93v-24Z"/><path d="M342,193.05a7.16,7.16,0,0,1-3-2.4,6.07,6.07,0,0,1-1.11-3.62h4.21a3.78,3.78,0,0,0,1.23,2.55,4.31,4.31,0,0,0,3.05,1,4.73,4.73,0,0,0,3.17-1,3.2,3.2,0,0,0,1.14-2.54,2.76,2.76,0,0,0-.71-2,4.75,4.75,0,0,0-1.76-1.18,27.57,27.57,0,0,0-2.91-.89,28.21,28.21,0,0,1-3.81-1.26,6.31,6.31,0,0,1-2.5-2,5.71,5.71,0,0,1-1-3.58,6.42,6.42,0,0,1,1-3.63,6.69,6.69,0,0,1,2.89-2.38,10.6,10.6,0,0,1,4.32-.82,9,9,0,0,1,5.7,1.74,6.4,6.4,0,0,1,2.47,4.78H350a3.11,3.11,0,0,0-1.24-2.25,4.6,4.6,0,0,0-3-.93,4.22,4.22,0,0,0-2.76.87,3,3,0,0,0-1.07,2.48,2.56,2.56,0,0,0,.67,1.81,4.84,4.84,0,0,0,1.71,1.12,24.87,24.87,0,0,0,2.83.9A28,28,0,0,1,351,181.2a6.38,6.38,0,0,1,2.55,2,5.72,5.72,0,0,1,1.06,3.63,6.51,6.51,0,0,1-1,3.45,7.05,7.05,0,0,1-2.86,2.61,9.49,9.49,0,0,1-4.43,1A10.82,10.82,0,0,1,342,193.05Z"/><path d="M363.05,169.68v24h-3.93v-24Z"/><path d="M372.83,192.32a11.56,11.56,0,0,1-4.45-4.38,13,13,0,0,1,0-12.64,11.64,11.64,0,0,1,4.45-4.36,12.93,12.93,0,0,1,12.35,0,11.52,11.52,0,0,1,4.43,4.36,13.14,13.14,0,0,1,0,12.64,11.44,11.44,0,0,1-4.43,4.38,12.93,12.93,0,0,1-12.35,0Zm10.4-2.93a7.52,7.52,0,0,0,2.91-3.1,9.91,9.91,0,0,0,1.06-4.68,9.73,9.73,0,0,0-1.06-4.65,7.38,7.38,0,0,0-2.91-3.07,8.94,8.94,0,0,0-8.48,0,7.34,7.34,0,0,0-2.92,3.07,9.84,9.84,0,0,0-1.05,4.65,10,10,0,0,0,1.05,4.68,7.48,7.48,0,0,0,2.92,3.1,8.79,8.79,0,0,0,8.48,0Z"/><path d="M414.62,193.65h-3.93l-11.83-17.9v17.9h-3.94v-24h3.94l11.83,17.87V169.64h3.93Z"/><rect class="cls-1" x="263.63" y="151.89" width="150.83" height="4.68"/><path d="M.3,228.19a19,19,0,0,0,19.14-9.85l2.48-4.6,2.24,4.73a21.36,21.36,0,0,0,36.92,3l1.81-2.63,2,2A17.15,17.15,0,0,0,76.61,226a16.57,16.57,0,0,0,14.47-7.89l2.83-4.56,1.89,5a26.22,26.22,0,0,0,24.41,16.89c.57,0,1.13,0,1.69-.06v-166L.3,34.14Z"/><polygon class="cls-1" points="0.3 75.76 0.3 94.29 121.9 133.88 121.9 115.34 0.3 75.76"/><polygon class="cls-1" points="25.95 115.05 0.3 106.7 0.3 125.24 25.95 133.58 25.95 115.05"/><polygon class="cls-1" points="49.45 141.23 89.14 154.15 89.14 135.62 49.45 122.7 49.45 141.23"/><polygon class="cls-1" points="112.63 143.27 112.63 161.8 121.9 164.82 121.9 146.28 112.63 143.27"/><circle class="cls-1" cx="37.7" cy="128.14" r="8.9"/><circle class="cls-1" cx="100.88" cy="148.71" r="8.9"/><path class="cls-2" d="M121.9,69.39v166a26.2,26.2,0,0,0,20.92-13l1.83-3.17,2.43,2.74a19,19,0,0,0,29.86-1.8l2.48-3.59,2,3.86A23.7,23.7,0,0,0,203.77,233a24.1,24.1,0,0,0,20.84-15.21l1.83-4.54,2.73,4.57A16.73,16.73,0,0,0,243.51,226V34.14Z"/><polygon class="cls-1" points="121.9 115.34 121.9 133.88 243.51 94.29 243.51 75.76 121.9 115.34"/><polygon class="cls-1" points="154.67 154.15 194.36 141.23 194.36 122.7 154.67 135.62 154.67 154.15"/><polygon class="cls-1" points="121.9 146.28 121.9 164.82 131.17 161.8 131.17 143.27 121.9 146.28"/><polygon class="cls-1" points="217.86 115.05 217.86 133.58 243.51 125.24 243.51 106.7 217.86 115.05"/><circle class="cls-1" cx="206.11" cy="128.14" r="8.9"/><circle class="cls-1" cx="142.92" cy="148.71" r="8.9"/><polygon class="cls-3" points="121.9 0 0 30.04 121.9 64.19 243.8 30.04 121.9 0"/><path class="cls-4" d="M355.63,104.84c-3.55-2.58-7.44-5.41-9.34-9.5-1.9,4.09-5.79,6.92-9.34,9.5s-7,5.09-8.15,8.51h35C362.65,109.93,359.23,107.45,355.63,104.84Z"/><path class="cls-5" d="M328.8,113.35c1.13-3.42,4.55-5.9,8.15-8.51s7.44-5.41,9.34-9.5c1.9,4.09,5.79,6.92,9.34,9.5s7,5.09,8.15,8.51h2.43c-1.12-4.53-5.22-7.52-9.2-10.41-4.77-3.46-9.28-6.74-9.55-12.48a2.26,2.26,0,0,0,0-.26v-.29a1.17,1.17,0,0,0-1.17-1.17h0a1.17,1.17,0,0,0-1.17,1.17h0c0,.18,0,.37,0,.55-.27,5.74-4.78,9-9.55,12.48-4,2.89-8.08,5.88-9.2,10.41h2.43Z"/><path class="cls-5" d="M348.43,86.74a5.33,5.33,0,0,0,3.34-4.92,4.38,4.38,0,1,1-5.89-5.12,5,5,0,0,1,.75-.23,5.43,5.43,0,0,0-2.19.39,5.33,5.33,0,1,0,4,9.88Z"/><polygon class="cls-5" points="346.99 81.39 346.37 83.32 348.01 82.13 349.65 83.32 349.02 81.39 350.67 80.2 348.64 80.2 348.01 78.27 347.38 80.2 345.35 80.2 346.99 81.39"/><polygon points="321.33 136.26 335.38 136.26 337.8 124.28 353.92 124.28 356.99 136.26 371.25 136.26 366.27 116.12 325.37 116.12 321.33 136.26"/></g></g></svg>