<svg xmlns="http://www.w3.org/2000/svg" viewBox="0 0 434.96 235.44" width="434.96" height="235.44"><defs><style>.cls-1{fill:#fbcb34;}.cls-2{fill:#404041;}.cls-3{fill:#808184;}</style></defs><g id="Layer_2" data-name="Layer 2"><g id="Layer_1-2" data-name="Layer 1"><path d="M275.65,58.55c3.9,9.54,15,4.43,15,11.12V86.5h18.79V58.55c3.91,9.54,15,4.43,15,11.12v50.5h-15V95.52H290.67v24.65h-15Z"/><path d="M371.08,107.54h-17l-2.55,12.63H336.74l9.77-48.62c3.68,7.51,14.13,3.38,12.78,10.07L355.9,98.53h12.85l-4.2-16.24c-2.48-9.69-16.76-5.41-16.76-14.58V59.07c8.72,13.3,26.68,1,30.88,18l10.68,43.14h-15Z"/><path d="M419.93,75.08H404V63.81h31v46.74c0,17.73-28.33,2.4-37,15.7v-8.64c0-10.67,22-3.45,22-12.32Z"/><path d="M290.84,156.93a11,11,0,0,1,4.68,4.43,13.26,13.26,0,0,1,1.66,6.74,13,13,0,0,1-1.66,6.69,10.86,10.86,0,0,1-4.68,4.34,15.66,15.66,0,0,1-7.07,1.51h-8.25V155.38h8.25A15.41,15.41,0,0,1,290.84,156.93Zm-.28,17.93a9.2,9.2,0,0,0,2.36-6.76,9.52,9.52,0,0,0-2.36-6.87c-1.57-1.64-3.84-2.47-6.79-2.47h-4.11v18.5h4.11C286.72,177.26,289,176.46,290.56,174.86Z"/><path d="M305.25,158.72v7.42H314v3.38h-8.72v7.74h9.81v3.38h-14V155.35h14v3.37Z"/><path d="M341.73,155.38l-9.48,25.26h-4.8l-9.52-25.26h4.43l7.49,21,7.52-21Z"/><path d="M349.15,155.38v25.26H345V155.38Z"/><path d="M358.16,180a7.49,7.49,0,0,1-3.2-2.52,6.45,6.45,0,0,1-1.16-3.82h4.43a4,4,0,0,0,1.29,2.69,4.61,4.61,0,0,0,3.22,1.06,5,5,0,0,0,3.34-1,3.36,3.36,0,0,0,1.2-2.67,2.93,2.93,0,0,0-.74-2.07,4.94,4.94,0,0,0-1.86-1.24,27.69,27.69,0,0,0-3.07-.94,29.25,29.25,0,0,1-4-1.33A6.73,6.73,0,0,1,355,166a6.06,6.06,0,0,1-1.09-3.78,6.79,6.79,0,0,1,1.09-3.82,7,7,0,0,1,3.06-2.5,11.07,11.07,0,0,1,4.54-.88,9.46,9.46,0,0,1,6,1.84,6.74,6.74,0,0,1,2.6,5h-4.58a3.3,3.3,0,0,0-1.31-2.36,4.85,4.85,0,0,0-3.16-1,4.48,4.48,0,0,0-2.91.91,3.16,3.16,0,0,0-1.12,2.62,2.6,2.6,0,0,0,.71,1.9,4.91,4.91,0,0,0,1.8,1.18,27.59,27.59,0,0,0,3,.95,30.84,30.84,0,0,1,4.08,1.38,6.75,6.75,0,0,1,2.69,2.13,6.08,6.08,0,0,1,1.11,3.83,6.84,6.84,0,0,1-1,3.63,7.48,7.48,0,0,1-3,2.75,10,10,0,0,1-4.67,1A11.21,11.21,0,0,1,358.16,180Z"/><path d="M380.33,155.38v25.26h-4.14V155.38Z"/><path d="M390.63,179.24a12.35,12.35,0,0,1-4.69-4.61,13,13,0,0,1-1.72-6.67,12.87,12.87,0,0,1,1.72-6.65,12.33,12.33,0,0,1,4.69-4.6,13.58,13.58,0,0,1,13,0,12,12,0,0,1,4.67,4.6A13,13,0,0,1,410,168a13.12,13.12,0,0,1-1.71,6.67,12,12,0,0,1-4.67,4.61,13.65,13.65,0,0,1-13,0Zm11-3.09a7.89,7.89,0,0,0,3.07-3.27,11.44,11.44,0,0,0,0-9.83,7.79,7.79,0,0,0-3.07-3.23,9.41,9.41,0,0,0-8.94,0,7.79,7.79,0,0,0-3.07,3.23,11.44,11.44,0,0,0,0,9.83,7.89,7.89,0,0,0,3.07,3.27,9.26,9.26,0,0,0,8.94,0Z"/><path d="M434.66,180.64h-4.14l-12.47-18.86v18.86h-4.14V155.35h4.14l12.47,18.82V155.35h4.14Z"/><rect class="cls-1" x="275.57" y="136.64" width="158.93" height="4.93"/><path d="M.3,228.19a19,19,0,0,0,19.14-9.85l2.48-4.6,2.24,4.73a21.36,21.36,0,0,0,36.92,3l1.81-2.63,2,2A17.15,17.15,0,0,0,76.61,226a16.57,16.57,0,0,0,14.47-7.89l2.83-4.56,1.89,5a26.22,26.22,0,0,0,24.41,16.89c.57,0,1.13,0,1.69-.06v-166L.3,34.14Z"/><polygon class="cls-1" points="0.3 75.76 0.3 94.29 121.9 133.88 121.9 115.34 0.3 75.76"/><polygon class="cls-1" points="25.95 115.05 0.3 106.7 0.3 125.24 25.95 133.58 25.95 115.05"/><polygon class="cls-1" points="49.45 141.23 89.14 154.15 89.14 135.62 49.45 122.7 49.45 141.23"/><polygon class="cls-1" points="112.63 143.27 112.63 161.8 121.9 164.82 121.9 146.28 112.63 143.27"/><circle class="cls-1" cx="37.69" cy="128.14" r="8.9"/><circle class="cls-1" cx="100.88" cy="148.71" r="8.9"/><path class="cls-2" d="M121.9,69.39v166a26.2,26.2,0,0,0,20.92-13l1.83-3.17,2.43,2.74a19,19,0,0,0,29.86-1.8l2.48-3.59,2,3.86A23.7,23.7,0,0,0,203.77,233a24.1,24.1,0,0,0,20.84-15.21l1.83-4.54,2.73,4.57A16.73,16.73,0,0,0,243.51,226V34.14Z"/><polygon class="cls-1" points="121.9 115.34 121.9 133.88 243.51 94.29 243.51 75.76 121.9 115.34"/><polygon class="cls-1" points="154.67 154.15 194.36 141.23 194.36 122.7 154.67 135.62 154.67 154.15"/><polygon class="cls-1" points="121.9 146.28 121.9 164.82 131.17 161.8 131.17 143.27 121.9 146.28"/><polygon class="cls-1" points="217.86 115.05 217.86 133.58 243.51 125.24 243.51 106.7 217.86 115.05"/><circle class="cls-1" cx="206.11" cy="128.14" r="8.9"/><circle class="cls-1" cx="142.92" cy="148.71" r="8.9"/><polygon class="cls-3" points="121.9 0 0 30.04 121.9 64.19 243.8 30.04 121.9 0"/></g></g></svg>