<svg xmlns="http://www.w3.org/2000/svg"  viewBox="0 0 496.97 236.16" width="496.97" height="236.16"><defs><style>.cls-1{fill:#c1902d;}.cls-2{fill:#404041;}.cls-3{fill:#fff;}.cls-4{fill:#e1c574;}</style></defs><g id="Layer_2" data-name="Layer 2"><g id="Layer_1-2" data-name="Layer 1"><polygon points="40.35 223.29 40.35 207.09 17.34 202.91 17.34 219.12 40.35 223.29"/><polygon points="12.15 201.97 0 199.76 0 215.97 12.15 218.17 12.15 201.97"/><polygon points="101.93 218.27 101.93 234.47 111.22 236.16 111.22 219.95 101.93 218.27"/><polygon points="96.75 217.33 73.73 213.15 73.73 229.35 96.75 233.53 96.75 217.33"/><polygon points="68.55 212.21 45.53 208.03 45.53 224.24 68.55 228.41 68.55 212.21"/><polygon points="108.63 197.66 86.29 193.61 86.29 209.81 108.63 213.87 108.63 197.66"/><polygon points="52.91 187.55 29.89 183.37 29.89 199.58 49.46 203.13 52.91 203.6 52.91 187.55"/><polygon points="81.11 192.67 58.09 188.49 58.09 204.7 76.98 208.13 81.11 208.69 81.11 192.67"/><polygon points="24.71 198.51 24.71 182.43 0 177.94 0 194.15 21.94 198.13 24.71 198.51"/><path d="M92,143.78a22.84,22.84,0,0,1-19.26-10.72,22.67,22.67,0,0,1-38.53,0A22.84,22.84,0,0,1,14.9,143.78,22.6,22.6,0,0,1,0,138.18v34.4l111.22,19.93V133.06A22.87,22.87,0,0,1,92,143.78Z"/><path d="M0,19.93V130.26a17.49,17.49,0,0,0,31.68-4.19l2.48-8.41,2.49,8.41a17.49,17.49,0,0,0,33.55,0l2.49-8.41,2.48,8.41a17.5,17.5,0,0,0,33.56,0l2.49-8.41V0Z"/><polygon class="cls-1" points="0 63.02 0 79.15 111.22 62.32 111.22 46.2 0 63.02"/><polygon class="cls-1" points="82.42 77.21 62.32 80.25 62.32 96.38 82.42 93.34 82.42 77.21"/><polygon class="cls-1" points="20.73 102.67 41.59 99.52 41.59 83.39 20.73 86.55 20.73 102.67"/><polygon class="cls-1" points="103.15 74.08 103.15 90.2 111.22 88.98 111.22 72.86 103.15 74.08"/><path class="cls-1" d="M13.7,95.47c-4-4,.72-2.12-3.77-7.14-4.54,5,.18,3.12-3.84,7.1s0,5.63,0,5.63.44.09,1.58,1.77a2.58,2.58,0,0,0,4.43,0c1.16-1.68,1.6-1.77,1.6-1.77S17.69,99.5,13.7,95.47Z"/><path class="cls-1" d="M55.36,89.19c-4-4,.72-2.12-3.77-7.14-4.54,5,.18,3.12-3.85,7.11s0,5.62,0,5.62.44.09,1.58,1.78a2.58,2.58,0,0,0,4.43,0c1.16-1.68,1.6-1.76,1.6-1.76S59.34,93.22,55.36,89.19Z"/><path class="cls-1" d="M96.65,82.88c-4-4,.72-2.12-3.77-7.14-4.54,5,.18,3.12-3.84,7.1s0,5.63,0,5.63.44.09,1.59,1.77a2.57,2.57,0,0,0,4.42,0c1.16-1.68,1.6-1.77,1.6-1.77S100.64,86.91,96.65,82.88Z"/><polygon class="cls-2" points="205.1 202.91 182.08 207.09 182.08 223.29 205.1 219.12 205.1 202.91"/><polygon class="cls-2" points="125.68 233.53 148.7 229.35 148.7 213.15 125.68 217.33 125.68 233.53"/><polygon class="cls-2" points="176.9 208.03 153.88 212.21 153.88 228.41 176.9 224.24 176.9 208.03"/><polygon class="cls-2" points="210.28 201.97 210.28 218.17 222.43 215.97 222.43 199.76 210.28 201.97"/><polygon class="cls-2" points="111.22 219.95 111.22 236.16 120.5 234.47 120.5 218.27 111.22 219.95"/><polygon class="cls-2" points="136.14 193.61 113.81 197.66 113.81 213.87 136.14 209.81 136.14 193.61"/><polygon class="cls-2" points="197.72 182.43 197.72 198.51 200.49 198.13 222.43 194.15 222.43 177.94 197.72 182.43"/><polygon class="cls-2" points="192.54 183.37 169.52 187.55 169.52 203.6 172.97 203.13 192.54 199.58 192.54 183.37"/><polygon class="cls-2" points="164.34 188.49 141.32 192.67 141.32 208.69 145.45 208.13 164.34 204.7 164.34 188.49"/><path class="cls-2" d="M207.53,143.78a22.85,22.85,0,0,1-19.26-10.72,22.67,22.67,0,0,1-38.53,0,22.66,22.66,0,0,1-38.52,0v59.45l111.21-19.93v-34.4A22.6,22.6,0,0,1,207.53,143.78Z"/><path class="cls-2" d="M111.22,0V117.66l2.48,8.41a17.5,17.5,0,0,0,33.56,0l2.48-8.41,2.49,8.41a17.5,17.5,0,0,0,33.56,0l2.48-8.41,2.49,8.41a17.48,17.48,0,0,0,31.67,4.19V19.93Z"/><rect class="cls-3" x="222.43" y="89.68" height="16.13"/><polygon class="cls-4" points="111.22 72.86 111.22 88.98 119.28 90.2 119.28 74.08 111.22 72.86"/><polygon class="cls-4" points="111.22 46.2 111.22 62.32 222.43 79.15 222.43 63.02 111.22 46.2"/><polygon class="cls-4" points="140.01 93.34 160.11 96.38 160.11 80.25 140.01 77.21 140.01 93.34"/><polygon class="cls-4" points="201.7 86.55 180.84 83.39 180.84 99.52 201.7 102.67 201.7 86.55"/><path class="cls-4" d="M208.73,95.47c4-4-.72-2.12,3.77-7.14,4.54,5-.18,3.12,3.85,7.1s0,5.63,0,5.63-.44.09-1.58,1.77a2.58,2.58,0,0,1-4.43,0c-1.16-1.68-1.6-1.77-1.6-1.77S204.75,99.5,208.73,95.47Z"/><path class="cls-4" d="M167.07,89.19c4-4-.71-2.12,3.77-7.14,4.54,5-.18,3.12,3.85,7.11s0,5.62,0,5.62-.45.09-1.59,1.78a2.58,2.58,0,0,1-4.43,0c-1.15-1.68-1.6-1.76-1.6-1.76S163.09,93.22,167.07,89.19Z"/><path class="cls-4" d="M125.78,82.88c4-4-.72-2.12,3.77-7.14,4.54,5-.18,3.12,3.84,7.1s0,5.63,0,5.63-.44.09-1.58,1.77a2.58,2.58,0,0,1-4.43,0c-1.16-1.68-1.6-1.77-1.6-1.77S121.79,86.91,125.78,82.88Z"/><path d="M238.34,21.66c6.34,15.49,24.4,7.19,24.4,18.05V67h30.5V21.66c6.34,15.49,24.4,7.19,24.4,18.05v82h-24.4v-40h-30.5v40h-24.4Z"/><path d="M393.28,101.2H365.71l-4.15,20.49h-24l15.86-78.93c6,12.2,22.94,5.49,20.74,16.35l-5.49,27.45h20.86l-6.83-26.35c-4-15.74-27.2-8.79-27.2-23.67v-14c14.15,21.59,43.31,1.71,50.14,29.16l17.32,70h-24.4Z"/><path d="M472.58,48.5H446.71V30.2H497v75.88c0,28.79-46,3.9-60.14,25.49v-14c0-17.32,35.75-5.61,35.75-20Z"/><path class="cls-2" d="M263,161.24a18,18,0,0,1,7.61,7.2,21.68,21.68,0,0,1,2.69,10.95,21.17,21.17,0,0,1-2.69,10.85,17.72,17.72,0,0,1-7.61,7,25.5,25.5,0,0,1-11.48,2.45H238.13v-41h13.39A25,25,0,0,1,263,161.24Zm-.44,29.12q3.82-3.9,3.83-11t-3.83-11.16q-3.84-4-11-4h-6.66v30h6.66Q258.72,194.25,262.56,190.36Z"/><path class="cls-2" d="M286.39,164.16v12h14.16v5.49H286.39v12.56h15.93v5.49H279.67V158.68h22.65v5.48Z"/><path class="cls-2" d="M345.63,158.74l-15.4,41h-7.79l-15.46-41h7.2l12.16,34.1,12.21-34.1Z"/><path class="cls-2" d="M357.67,158.74v41h-6.73v-41Z"/><path class="cls-2" d="M372.3,198.71a12.23,12.23,0,0,1-5.2-4.1,10.48,10.48,0,0,1-1.88-6.2h7.19a6.52,6.52,0,0,0,2.1,4.37,7.43,7.43,0,0,0,5.22,1.71,8.06,8.06,0,0,0,5.43-1.68,5.46,5.46,0,0,0,1.94-4.34,4.75,4.75,0,0,0-1.2-3.36,8.05,8.05,0,0,0-3-2,46.24,46.24,0,0,0-5-1.53,46.72,46.72,0,0,1-6.52-2.16A10.67,10.67,0,0,1,367.1,176a9.79,9.79,0,0,1-1.77-6.13,10.92,10.92,0,0,1,1.77-6.2,11.26,11.26,0,0,1,5-4.07,18,18,0,0,1,7.37-1.42,15.41,15.41,0,0,1,9.77,3,11,11,0,0,1,4.22,8.18H386a5.34,5.34,0,0,0-2.12-3.84,7.86,7.86,0,0,0-5.13-1.59A7.3,7.3,0,0,0,374,165.4a5.15,5.15,0,0,0-1.83,4.25,4.31,4.31,0,0,0,1.15,3.1,8.35,8.35,0,0,0,2.92,1.92,45.49,45.49,0,0,0,4.84,1.53,50.54,50.54,0,0,1,6.63,2.24,11.12,11.12,0,0,1,4.37,3.45,9.94,9.94,0,0,1,1.8,6.23,11.21,11.21,0,0,1-1.68,5.9,12.13,12.13,0,0,1-4.9,4.45,16.14,16.14,0,0,1-7.58,1.68A18.41,18.41,0,0,1,372.3,198.71Z"/><path class="cls-2" d="M408.28,158.74v41h-6.72v-41Z"/><path class="cls-2" d="M425,197.47A20,20,0,0,1,417.4,190a22.29,22.29,0,0,1,0-21.63,20,20,0,0,1,7.61-7.46,22.07,22.07,0,0,1,21.12,0,19.68,19.68,0,0,1,7.58,7.46,22.43,22.43,0,0,1,0,21.63,19.62,19.62,0,0,1-7.58,7.49,22.14,22.14,0,0,1-21.12,0Zm17.79-5a12.73,12.73,0,0,0,5-5.31,18.5,18.5,0,0,0,0-16,12.69,12.69,0,0,0-5-5.25,15.3,15.3,0,0,0-14.51,0,12.71,12.71,0,0,0-5,5.25,18.59,18.59,0,0,0,0,16,12.75,12.75,0,0,0,5,5.31,15.08,15.08,0,0,0,14.51,0Z"/><path class="cls-2" d="M496.49,199.74h-6.73l-20.23-30.62v30.62H462.8V158.68h6.73l20.23,30.56V158.68h6.73Z"/><rect class="cls-1" x="238.22" y="136.58" width="258" height="8"/></g></g></svg>