<svg xmlns="http://www.w3.org/2000/svg" viewBox="0 0 197.19 102.35" width="197.19" height="102.35"><defs><style>.cls-1{fill:none;}.cls-2{fill:#c1902d;}.cls-3{fill:#fbcb34;}.cls-4{fill:#404041;}.cls-5{fill:#808184;}</style></defs><g id="Layer_2" data-name="Layer 2"><g id="Layer_1-2" data-name="Layer 1"><path d="M116.4,67c2,4.84,7.63,2.25,7.63,5.64v8.53h9.52V67c2,4.84,7.63,2.25,7.63,5.64V98.27h-7.63V85.77H124v12.5H116.4Z"/><path d="M164.8,91.86h-8.61l-1.3,6.41h-7.5l5-24.66c1.87,3.81,7.16,1.71,6.48,5.11l-1.72,8.57h6.52l-2.13-8.23c-1.26-4.92-8.5-2.74-8.5-7.39V67.28c4.42,6.75,13.53.54,15.66,9.11l5.41,21.88h-7.62Z"/><path d="M189.57,75.4h-8.08V69.68h15.7V93.39c0,9-14.36,1.22-18.79,8V97c0-5.41,11.17-1.75,11.17-6.25Z"/><path class="cls-1" d="M175.05,47.25c-6.76-4.91-14.17-10.3-17.79-18.1-3.63,7.8-11,13.19-17.8,18.1S126.1,57,124,63.47h66.62C188.41,57,181.9,52.23,175.05,47.25Z"/><path class="cls-2" d="M124,63.47c2.15-6.51,8.66-11.24,15.51-16.22s14.17-10.3,17.8-18.1c3.62,7.8,11,13.19,17.79,18.1S188.41,57,190.57,63.47h4.63c-2.14-8.64-9.95-14.32-17.53-19.83C168.59,37,160,30.8,159.49,19.86c0-.16,0-.32,0-.48s0-.37,0-.56a2.23,2.23,0,0,0-2.23-2.23h-.05A2.23,2.23,0,0,0,155,18.82h0c0,.35,0,.7,0,1-.51,10.94-9.1,17.18-18.18,23.78-7.58,5.51-15.39,11.19-17.53,19.83H124Z"/><path class="cls-2" d="M126.14,63.47c2-6.08,8.09-10.5,14.49-15.15s13.24-9.62,16.63-16.91c3.38,7.29,10.3,12.32,16.62,16.91s12.48,9.07,14.49,15.15h4.33c-2-8.07-9.29-13.38-16.37-18.52-8.48-6.17-16.51-12-17-22.22,0-.15,0-.3,0-.45s0-.35,0-.52a2.09,2.09,0,0,0-2.08-2.09h-.05a2.08,2.08,0,0,0-2.08,2.09h0c0,.33,0,.65,0,1-.48,10.22-8.51,16.05-17,22.22-7.08,5.14-14.38,10.45-16.37,18.52h4.33Z"/><path class="cls-2" d="M129.51,63.47c1.8-5.42,7.22-9.37,12.92-13.51s11.81-8.58,14.83-15.07c3,6.49,9.19,11,14.82,15.07S183.2,58.05,185,63.47h3.86c-1.78-7.19-8.29-11.93-14.6-16.51-7.56-5.5-14.72-10.7-15.15-19.81,0-.13,0-.27,0-.41v-.46a1.86,1.86,0,0,0-1.86-1.86h0a1.86,1.86,0,0,0-1.86,1.86h0c0,.29,0,.58,0,.87C155,36.26,147.81,41.46,140.25,47c-6.31,4.58-12.82,9.32-14.6,16.51h3.86Z"/><path d="M.13,99.2a9,9,0,0,0,1,.07,8.25,8.25,0,0,0,7.27-4.35l1.08-2,1,2.06a9.29,9.29,0,0,0,16.06,1.29l.78-1.15.86.87a7.45,7.45,0,0,0,5.11,2.25,7.2,7.2,0,0,0,6.29-3.43l1.22-2L41.65,95a11.39,11.39,0,0,0,10.61,7.34l.74,0V30.17L.13,14.84Z"/><polygon class="cls-3" points="0.13 32.94 0.13 40.99 52.99 58.2 52.99 50.14 0.13 32.94"/><polygon class="cls-3" points="11.28 50.02 0.13 46.39 0.13 54.45 11.28 58.07 11.28 50.02"/><polygon class="cls-3" points="21.5 61.4 38.75 67.02 38.75 58.96 21.5 53.34 21.5 61.4"/><polygon class="cls-3" points="48.97 62.28 48.97 70.34 52.99 71.65 52.99 63.59 48.97 62.28"/><circle class="cls-3" cx="16.39" cy="55.71" r="3.87"/><circle class="cls-3" cx="43.86" cy="64.65" r="3.87"/><path class="cls-4" d="M53,30.17v72.16a11.41,11.41,0,0,0,9.09-5.66l.79-1.38,1.06,1.19a8.25,8.25,0,0,0,13-.78L78,94.14l.89,1.68a10.31,10.31,0,0,0,9.7,5.49,10.49,10.49,0,0,0,9.06-6.61l.79-2,1.19,2a7.26,7.26,0,0,0,6.23,3.53V14.84Z"/><polygon class="cls-3" points="52.99 50.14 52.99 58.2 105.86 40.99 105.86 32.94 52.99 50.14"/><polygon class="cls-3" points="67.24 67.02 84.5 61.4 84.5 53.34 67.24 58.96 67.24 67.02"/><polygon class="cls-3" points="52.99 63.59 52.99 71.65 57.02 70.34 57.02 62.28 52.99 63.59"/><polygon class="cls-3" points="94.71 50.02 94.71 58.07 105.86 54.45 105.86 46.39 94.71 50.02"/><circle class="cls-3" cx="89.6" cy="55.71" r="3.87"/><circle class="cls-3" cx="62.13" cy="64.65" r="3.87"/><polygon class="cls-5" points="52.99 0 0 13.06 52.99 27.91 105.99 13.06 52.99 0"/></g></g></svg>