<svg width="484" height="82" viewBox="0 0 484 82" fill="none" xmlns="http://www.w3.org/2000/svg">
<rect x="1" y="1" width="482" height="80" fill="white"/>
<path d="M483 1H1V81H483V1Z" stroke="#2483C5" stroke-miterlimit="10"/>
<path d="M38.5499 65.4102H23.1499V66.5901H38.5499V65.4102Z" fill="#2483C5"/>
<path d="M23.1499 63.4699V61.6299H38.4199L38.4899 63.4699H23.1499Z" fill="#2483C5"/>
<path d="M23.1499 59.6601V57.1401H38.3199L38.3699 59.6601H23.1499Z" fill="#2483C5"/>
<path d="M23.1499 55.16V51.52H38.1599L38.2399 55.16H23.1499Z" fill="#2483C5"/>
<path d="M23.1499 49.5997V43.9497H67.4899V49.5997H41.1099L37.9399 44.3897L38.0799 49.5997H23.1499Z" fill="#2483C5"/>
<path d="M23.1499 41.9998V35.0098H49.1699L52.7199 41.0398L52.7499 35.0098H67.4899V41.9998H23.1499Z" fill="#2483C5"/>
<path d="M23.1499 33.0501V19.6401H40.1399L48.0099 33.0501H23.1499Z" fill="#2483C5"/>
<path d="M52.76 33.0501L52.82 19.6401H67.49V33.0501H52.76Z" fill="#2483C5"/>
<path d="M67.4898 51.52V55.16H44.5598L42.3198 51.52H67.4898Z" fill="#2483C5"/>
<path d="M67.49 57.1401V59.6601H47.26L45.73 57.1401H67.49Z" fill="#2483C5"/>
<path d="M67.49 61.6299V63.4699H49.57L48.46 61.6299H67.49Z" fill="#2483C5"/>
<path d="M67.49 65.4102V66.5901H51.24L50.76 65.4102H67.49Z" fill="#2483C5"/>
<path d="M87.0799 65.4102H71.6899V66.5901H87.0799V65.4102Z" fill="#2483C5"/>
<path d="M87.0799 61.6299H71.6899V63.4599H87.0799V61.6299Z" fill="#2483C5"/>
<path d="M87.0799 57.1401H71.6899V59.6601H87.0799V57.1401Z" fill="#2483C5"/>
<path d="M87.0799 51.52H71.6899V55.16H87.0799V51.52Z" fill="#2483C5"/>
<path d="M87.0799 43.9497H71.6899V49.5997H87.0799V43.9497Z" fill="#2483C5"/>
<path d="M87.0799 35.0098H71.6899V41.9998H87.0799V35.0098Z" fill="#2483C5"/>
<path d="M87.0799 19.6401H71.6899V33.0501H87.0799V19.6401Z" fill="#2483C5"/>
<path d="M113.54 18.6099H121.71V33.0499H91.97C95.65 24.5699 103.94 18.6099 113.54 18.6099Z" fill="#2483C5"/>
<path d="M108.51 35.0098C106.69 36.6498 105.49 39.1698 105.44 41.9998H89.9299C90.0399 39.5698 90.4899 37.2298 91.2199 35.0098H108.5H108.51Z" fill="#2483C5"/>
<path d="M105.57 43.9497C105.96 46.2597 107.1 48.2397 108.64 49.5997H90.84C90.35 47.8097 90.03 45.9097 89.97 43.9497H105.57Z" fill="#2483C5"/>
<path d="M121.71 51.52V55.17H93.15C92.51 54.02 91.92 52.82 91.46 51.52H121.71Z" fill="#2483C5"/>
<path d="M121.71 57.1401V59.6601H96.4199C95.6799 58.8801 95.0199 58.0201 94.3899 57.1401H121.71Z" fill="#2483C5"/>
<path d="M121.71 61.6299V63.4599H100.87C100.02 62.8799 99.2099 62.2899 98.4399 61.6299H121.7H121.71Z" fill="#2483C5"/>
<path d="M121.71 65.4102V66.4302H107.78C107.78 66.4302 107.32 66.6102 104.55 65.4102H121.71Z" fill="#2483C5"/>
<path d="M132.3 46.0801H136.46L144.01 60.4301V46.0801H147.71V66.6701H143.74L136 52.0601V66.6701H132.3V46.0801Z" fill="#2483C5"/>
<path d="M156.44 57.4099C157.13 57.3199 157.61 57.1998 157.91 57.0598C158.44 56.8198 158.7 56.4398 158.7 55.9298C158.7 55.3098 158.5 54.8798 158.09 54.6398C157.68 54.3998 157.09 54.2798 156.3 54.2798C155.42 54.2798 154.8 54.5099 154.43 54.9799C154.17 55.3299 154 55.7898 153.91 56.3798H150.36C150.44 55.0498 150.78 53.9498 151.4 53.0998C152.38 51.7598 154.05 51.0898 156.43 51.0898C157.97 51.0898 159.35 51.4198 160.55 52.0798C161.75 52.7398 162.35 53.9898 162.35 55.8198V62.7999C162.35 63.2799 162.36 63.8698 162.38 64.5598C162.4 65.0798 162.48 65.4299 162.6 65.6199C162.72 65.7999 162.9 65.9598 163.14 66.0798V66.6698H159.14C159.03 66.3598 158.95 66.0699 158.91 65.7999C158.87 65.5299 158.83 65.2198 158.81 64.8798C158.3 65.4798 157.71 65.9799 157.05 66.4099C156.25 66.8999 155.36 67.1498 154.35 67.1498C153.07 67.1498 152.01 66.7598 151.18 65.9698C150.35 65.1798 149.93 64.0698 149.93 62.6298C149.93 60.7598 150.6 59.3998 151.94 58.5698C152.68 58.1098 153.76 57.7898 155.19 57.5898L156.45 57.4198L156.44 57.4099ZM158.69 59.2698C158.45 59.4298 158.22 59.5598 157.98 59.6498C157.74 59.7498 157.41 59.8398 156.99 59.9198L156.15 60.0898C155.37 60.2398 154.8 60.4198 154.46 60.6298C153.88 60.9898 153.59 61.5598 153.59 62.3198C153.59 62.9998 153.77 63.4898 154.12 63.7898C154.47 64.0898 154.9 64.2398 155.41 64.2398C156.21 64.2398 156.95 63.9898 157.63 63.4898C158.31 62.9898 158.66 62.0698 158.69 60.7398V59.2598V59.2698Z" fill="#2483C5"/>
<path d="M163.85 54.4198V51.5898H165.81V47.3398H169.45V51.5898H171.73V54.4198H169.45V62.4598C169.45 63.0898 169.52 63.4798 169.67 63.6298C169.81 63.7898 170.26 63.8598 171.01 63.8598C171.12 63.8598 171.24 63.8598 171.37 63.8598C171.49 63.8598 171.61 63.8498 171.74 63.8398V66.8198L170 66.8898C168.26 66.9498 167.08 66.6299 166.44 65.9099C166.03 65.4499 165.82 64.7499 165.82 63.7999V54.4298H163.86L163.85 54.4198Z" fill="#2483C5"/>
<path d="M178.06 49.63H174.33V45.96H178.06V49.63ZM174.33 51.45H178.06V66.67H174.33V51.45Z" fill="#2483C5"/>
<path d="M192.62 64.7997C191.43 66.3897 189.63 67.1797 187.22 67.1797C184.81 67.1797 183 66.3897 181.82 64.7997C180.63 63.2197 180.04 61.2997 180.04 59.0697C180.04 56.8397 180.63 54.9697 181.82 53.3597C183 51.7497 184.81 50.9497 187.22 50.9497C189.63 50.9497 191.43 51.7497 192.62 53.3597C193.81 54.9697 194.4 56.8697 194.4 59.0697C194.4 61.2697 193.81 63.2197 192.62 64.7997ZM189.68 62.5997C190.25 61.7697 190.54 60.5997 190.54 59.0697C190.54 57.5397 190.25 56.3697 189.68 55.5497C189.1 54.7297 188.28 54.3097 187.2 54.3097C186.12 54.3097 185.3 54.7197 184.72 55.5497C184.14 56.3697 183.85 57.5397 183.85 59.0697C183.85 60.5997 184.14 61.7697 184.72 62.5997C185.3 63.4297 186.13 63.8397 187.2 63.8397C188.27 63.8397 189.1 63.4197 189.68 62.5997Z" fill="#2483C5"/>
<path d="M208.1 52.3098C209.02 53.1398 209.48 54.4999 209.48 56.4099V66.6599H205.71V57.3998C205.71 56.5998 205.61 55.9798 205.42 55.5598C205.06 54.7798 204.38 54.3898 203.37 54.3898C202.13 54.3898 201.29 54.9598 200.82 56.1098C200.58 56.7198 200.46 57.4898 200.46 58.4298V66.6698H196.78V51.4799H200.34V53.6998C200.81 52.9198 201.25 52.3498 201.68 52.0098C202.43 51.3998 203.39 51.0898 204.54 51.0898C205.99 51.0898 207.17 51.4998 208.09 52.3298" fill="#2483C5"/>
<path d="M218.2 57.4099C218.89 57.3199 219.37 57.1998 219.67 57.0598C220.2 56.8198 220.46 56.4398 220.46 55.9298C220.46 55.3098 220.26 54.8798 219.85 54.6398C219.44 54.3998 218.85 54.2798 218.06 54.2798C217.18 54.2798 216.56 54.5099 216.19 54.9799C215.93 55.3299 215.76 55.7898 215.67 56.3798H212.13C212.21 55.0498 212.55 53.9498 213.16 53.0998C214.14 51.7598 215.81 51.0898 218.19 51.0898C219.74 51.0898 221.11 51.4198 222.31 52.0798C223.51 52.7398 224.11 53.9898 224.11 55.8198V62.7999C224.11 63.2799 224.11 63.8698 224.14 64.5598C224.16 65.0798 224.24 65.4299 224.36 65.6199C224.48 65.7999 224.66 65.9598 224.9 66.0798V66.6698H220.9C220.79 66.3598 220.71 66.0699 220.67 65.7999C220.63 65.5299 220.59 65.2198 220.57 64.8798C220.06 65.4798 219.47 65.9799 218.81 66.4099C218.02 66.8999 217.12 67.1498 216.11 67.1498C214.83 67.1498 213.77 66.7598 212.94 65.9698C212.11 65.1798 211.69 64.0698 211.69 62.6298C211.69 60.7598 212.36 59.3998 213.7 58.5698C214.44 58.1098 215.52 57.7898 216.95 57.5898L218.21 57.4198L218.2 57.4099ZM220.45 59.2698C220.21 59.4298 219.98 59.5598 219.74 59.6498C219.5 59.7498 219.17 59.8398 218.75 59.9198L217.91 60.0898C217.13 60.2398 216.56 60.4198 216.22 60.6298C215.64 60.9898 215.35 61.5598 215.35 62.3198C215.35 62.9998 215.53 63.4898 215.88 63.7898C216.23 64.0898 216.66 64.2398 217.17 64.2398C217.97 64.2398 218.71 63.9898 219.39 63.4898C220.07 62.9898 220.41 62.0698 220.44 60.7398V59.2598L220.45 59.2698Z" fill="#2483C5"/>
<path d="M230.8 46.0801H227.13V66.6701H230.8V46.0801Z" fill="#2483C5"/>
<path d="M242.68 46.3301H238.73V66.9101H242.68V46.3301Z" fill="#2483C5"/>
<path d="M257.17 52.5701C258.09 53.3901 258.55 54.7601 258.55 56.6701V66.9201H254.78V57.6601C254.78 56.8601 254.68 56.2401 254.49 55.8201C254.13 55.0401 253.45 54.6501 252.44 54.6501C251.2 54.6501 250.35 55.2301 249.89 56.3701C249.65 56.9801 249.53 57.7501 249.53 58.6901V66.9301H245.86V51.7401H249.42V53.9601C249.89 53.1801 250.34 52.6201 250.76 52.2701C251.51 51.6501 252.47 51.3501 253.62 51.3501C255.07 51.3501 256.25 51.7601 257.17 52.5901" fill="#2483C5"/>
<path d="M267.51 46.1499C267.7 46.1599 267.96 46.1799 268.29 46.2099V49.4499C268.08 49.4199 267.74 49.3999 267.25 49.3899C266.77 49.3799 266.43 49.4899 266.25 49.7399C266.07 49.9899 265.98 50.2599 265.98 50.5599V51.8399H268.39V54.6499H265.98V66.9299H262.33V54.6499H260.27V51.8399H262.28V50.8699C262.28 49.2399 262.53 48.1199 263.04 47.4999C263.57 46.5899 264.86 46.1299 266.89 46.1299C267.12 46.1299 267.34 46.1299 267.52 46.1499" fill="#2483C5"/>
<path d="M281.95 65.06C280.76 66.65 278.96 67.44 276.55 67.44C274.14 67.44 272.34 66.65 271.15 65.06C269.96 63.48 269.37 61.56 269.37 59.33C269.37 57.1 269.96 55.23 271.15 53.62C272.34 52.01 274.14 51.21 276.55 51.21C278.96 51.21 280.77 52.02 281.95 53.62C283.13 55.23 283.73 57.13 283.73 59.33C283.73 61.53 283.14 63.47 281.95 65.06ZM279.01 62.86C279.58 62.04 279.87 60.86 279.87 59.33C279.87 57.8 279.58 56.63 279.01 55.81C278.43 54.99 277.61 54.57 276.53 54.57C275.45 54.57 274.63 54.98 274.05 55.81C273.47 56.63 273.18 57.81 273.18 59.33C273.18 60.85 273.47 62.03 274.05 62.86C274.63 63.69 275.46 64.1 276.53 64.1C277.6 64.1 278.43 63.68 279.01 62.86Z" fill="#2483C5"/>
<path d="M293.9 51.3398C293.9 51.3398 294.05 51.3498 294.22 51.3598V55.4398C293.99 55.4098 293.78 55.3898 293.6 55.3798C293.42 55.3798 293.27 55.3699 293.16 55.3699C291.68 55.3699 290.69 55.8898 290.18 56.9298C289.9 57.5198 289.75 58.4198 289.75 59.6398V66.9099H286.05V51.6898H289.56V54.3498C290.13 53.3298 290.62 52.6398 291.04 52.2698C291.73 51.6498 292.62 51.3398 293.72 51.3398C293.79 51.3398 293.85 51.3398 293.89 51.3398" fill="#2483C5"/>
<path d="M313.64 51.7499C314.24 52.0099 314.79 52.4599 315.28 53.1199C315.67 53.6499 315.94 54.2999 316.08 55.0699C316.17 55.5899 316.21 56.3299 316.21 57.3199L316.18 66.9099H312.41V57.2199C312.41 56.6499 312.33 56.1699 312.15 55.7999C311.82 55.0899 311.22 54.7399 310.35 54.7399C309.34 54.7399 308.64 55.1899 308.25 56.1099C308.05 56.5899 307.95 57.1699 307.95 57.8499V66.9099H304.25V57.8499C304.25 56.9499 304.16 56.2899 303.99 55.8799C303.68 55.1399 303.08 54.7799 302.17 54.7799C301.12 54.7799 300.42 55.1499 300.06 55.8799C299.86 56.2999 299.76 56.9199 299.76 57.7499V66.9099H296.03V51.7199H299.6V53.9399C300.06 53.1499 300.48 52.5899 300.89 52.2499C301.61 51.6499 302.53 51.3599 303.66 51.3599C304.73 51.3599 305.6 51.6199 306.27 52.1299C306.8 52.6099 307.21 53.2099 307.48 53.9599C307.96 53.0699 308.56 52.4099 309.27 51.9899C310.02 51.5699 310.87 51.3599 311.8 51.3599C312.42 51.3599 313.03 51.4899 313.63 51.7499" fill="#2483C5"/>
<path d="M324.89 57.6599C325.57 57.5699 326.06 57.4498 326.36 57.3098C326.89 57.0698 327.15 56.6898 327.15 56.1798C327.15 55.5598 326.95 55.1298 326.54 54.8898C326.13 54.6498 325.54 54.5298 324.75 54.5298C323.87 54.5298 323.25 54.7599 322.88 55.2299C322.62 55.5699 322.45 56.0398 322.36 56.6298H318.82C318.9 55.2998 319.24 54.1998 319.86 53.3498C320.83 52.0098 322.51 51.3398 324.88 51.3398C326.43 51.3398 327.8 51.6698 329 52.3298C330.2 52.9898 330.8 54.2398 330.8 56.0698V63.0598C330.8 63.5398 330.8 64.1298 330.83 64.8198C330.85 65.3498 330.93 65.6998 331.05 65.8798C331.17 66.0698 331.35 66.2198 331.59 66.3398V66.9298H327.59C327.48 66.6198 327.4 66.3398 327.36 66.0598C327.32 65.7898 327.28 65.4798 327.26 65.1398C326.75 65.7298 326.16 66.2399 325.5 66.6599C324.71 67.1599 323.81 67.3998 322.8 67.3998C321.52 67.3998 320.46 67.0098 319.63 66.2198C318.8 65.4298 318.38 64.3199 318.38 62.8699C318.38 60.9999 319.05 59.6498 320.39 58.8098C321.13 58.3498 322.21 58.0298 323.63 57.8298L324.89 57.6599ZM327.14 59.5198C326.91 59.6798 326.67 59.8098 326.43 59.8998C326.19 59.9998 325.86 60.0898 325.44 60.1698L324.6 60.3398C323.82 60.4898 323.25 60.6698 322.91 60.8798C322.33 61.2398 322.04 61.8098 322.04 62.5698C322.04 63.2498 322.21 63.7398 322.57 64.0398C322.92 64.3398 323.35 64.4998 323.86 64.4998C324.66 64.4998 325.4 64.2498 326.08 63.7398C326.76 63.2398 327.11 62.3198 327.13 60.9898V59.5098L327.14 59.5198Z" fill="#2483C5"/>
<path d="M332.3 54.6701V51.8301H334.26V47.5801H337.9V51.8301H340.18V54.6701H337.9V62.7101C337.9 63.3301 337.97 63.7201 338.12 63.8701C338.26 64.0301 338.71 64.1001 339.46 64.1001C339.57 64.1001 339.69 64.1001 339.81 64.1001C339.94 64.1001 340.06 64.0901 340.18 64.0801V67.0601L338.44 67.1301C336.7 67.2001 335.52 66.8701 334.88 66.1501C334.47 65.7001 334.26 64.9901 334.26 64.0401V54.6701H332.3Z" fill="#2483C5"/>
<path d="M346.51 49.8797H342.78V46.1997H346.51V49.8797ZM342.78 51.6897H346.51V66.9097H342.78V51.6897Z" fill="#2483C5"/>
<path d="M357.75 57.1599C357.68 56.5899 357.5 56.0799 357.22 55.6199C356.81 54.9999 356.17 54.6998 355.29 54.6998C354.05 54.6998 353.2 55.3698 352.74 56.6998C352.5 57.4098 352.38 58.3498 352.38 59.5098C352.38 60.6698 352.5 61.5198 352.74 62.1998C353.18 63.4698 354.01 64.0998 355.23 64.0998C356.09 64.0998 356.7 63.8498 357.06 63.3398C357.42 62.8398 357.64 62.1898 357.72 61.3898H361.47C361.38 62.5998 360.98 63.7398 360.26 64.8298C359.11 66.5698 357.4 67.4398 355.14 67.4398C352.88 67.4398 351.21 66.7098 350.15 65.2598C349.08 63.8098 348.55 61.9198 348.55 59.6098C348.55 56.9998 349.14 54.9698 350.32 53.5198C351.5 52.0698 353.12 51.3398 355.2 51.3398C356.96 51.3398 358.41 51.7699 359.53 52.6199C360.65 53.4799 361.32 54.9899 361.52 57.1599H357.76H357.75Z" fill="#2483C5"/>
<path d="M366.62 62.0598C366.7 62.7698 366.87 63.2698 367.13 63.5698C367.59 64.0998 368.43 64.3598 369.67 64.3598C370.4 64.3598 370.97 64.2498 371.4 64.0098C371.83 63.7798 372.04 63.4298 372.04 62.9598C372.04 62.4898 371.87 62.1698 371.52 61.9398C371.18 61.7098 369.89 61.2998 367.67 60.7398C366.07 60.3098 364.95 59.7798 364.3 59.1398C363.65 58.4998 363.32 57.5898 363.32 56.3998C363.32 54.9898 363.83 53.7798 364.85 52.7698C365.87 51.7598 367.31 51.2598 369.16 51.2598C371.01 51.2598 372.35 51.6398 373.46 52.3998C374.56 53.1598 375.2 54.4698 375.36 56.3298H371.69C371.64 55.8198 371.51 55.4098 371.29 55.1198C370.89 54.5798 370.2 54.3098 369.22 54.3098C368.42 54.3098 367.85 54.4398 367.51 54.7098C367.17 54.9798 367 55.2998 367 55.6598C367 56.1198 367.18 56.4398 367.54 56.6498C367.9 56.8598 369.18 57.2298 371.38 57.7498C372.84 58.1198 373.94 58.6898 374.67 59.4398C375.39 60.2098 375.75 61.1598 375.75 62.2998C375.75 63.8098 375.23 65.0398 374.19 65.9998C373.15 66.9498 371.55 67.4298 369.38 67.4298C367.21 67.4298 365.53 66.9198 364.48 65.9098C363.42 64.8998 362.9 63.6098 362.9 62.0498H366.62V62.0598Z" fill="#2483C5"/>
<path d="M382.68 48.4101C384.21 46.7201 386.16 45.8701 388.52 45.8701C391.68 45.8701 394 47.0101 395.46 49.2801C396.27 50.5501 396.7 51.8401 396.76 53.1201H392.79C392.54 52.1301 392.21 51.3901 391.82 50.8901C391.11 49.9901 390.06 49.5501 388.68 49.5501C387.3 49.5501 386.15 50.1801 385.33 51.4401C384.51 52.7001 384.1 54.4901 384.1 56.8001C384.1 59.1101 384.53 60.8401 385.39 61.9901C386.25 63.1401 387.35 63.7101 388.68 63.7101C390.01 63.7101 391.08 63.2201 391.8 62.2301C392.2 61.7001 392.52 60.9001 392.78 59.8401H396.73C396.39 62.0801 395.52 63.9101 394.12 65.3101C392.72 66.7201 390.93 67.4201 388.74 67.4201C386.04 67.4201 383.91 66.4701 382.36 64.5701C380.81 62.6601 380.04 60.0501 380.04 56.7201C380.04 53.1301 380.92 50.3601 382.68 48.4101Z" fill="#2483C5"/>
<path d="M408.53 51.9297C409.51 52.3997 410.32 53.1497 410.96 54.1797C411.54 55.0797 411.91 56.1297 412.08 57.3297C412.18 58.0297 412.22 59.0297 412.2 60.3497H401.96C402.02 61.8797 402.51 62.9497 403.43 63.5597C403.99 63.9397 404.67 64.1297 405.46 64.1297C406.3 64.1297 406.98 63.8997 407.5 63.4297C407.78 63.1797 408.04 62.8297 408.26 62.3797H412.02C411.92 63.2797 411.46 64.1997 410.66 65.1297C409.4 66.6097 407.64 67.3497 405.37 67.3497C403.5 67.3497 401.85 66.7297 400.42 65.4797C398.99 64.2297 398.27 62.1997 398.27 59.3797C398.27 56.7397 398.91 54.7297 400.2 53.3097C401.49 51.8997 403.17 51.1997 405.23 51.1997C406.45 51.1997 407.55 51.4397 408.53 51.9197M403.03 55.3597C402.51 55.9397 402.18 56.7297 402.05 57.7197H408.38C408.31 56.6597 407.99 55.8597 407.4 55.3097C406.81 54.7597 406.09 54.4897 405.22 54.4897C404.28 54.4897 403.55 54.7797 403.03 55.3597Z" fill="#2483C5"/>
<path d="M425.13 52.4998C426.05 53.3298 426.51 54.6898 426.51 56.5998V66.8498H422.75V57.5898C422.75 56.7898 422.65 56.1798 422.46 55.7498C422.1 54.9598 421.42 54.5698 420.41 54.5698C419.17 54.5698 418.32 55.1398 417.86 56.2898C417.62 56.8998 417.5 57.6698 417.5 58.6098V66.8498H413.82V51.6498H417.38V53.8698C417.85 53.0898 418.3 52.5198 418.72 52.1798C419.47 51.5598 420.43 51.2598 421.58 51.2598C423.03 51.2598 424.21 51.6698 425.13 52.4898" fill="#2483C5"/>
<path d="M428.22 54.6V51.76H430.18V47.52H433.82V51.76H436.1V54.6H433.82V62.64C433.82 63.26 433.89 63.65 434.04 63.81C434.19 63.97 434.63 64.04 435.38 64.04C435.49 64.04 435.61 64.04 435.74 64.04C435.86 64.04 435.99 64.03 436.11 64.02V67L434.37 67.07C432.63 67.14 431.45 66.81 430.81 66.1C430.4 65.65 430.19 64.94 430.19 63.99V54.62H428.23L428.22 54.6Z" fill="#2483C5"/>
<path d="M446 51.27C446 51.27 446.15 51.28 446.32 51.29V55.37C446.09 55.34 445.88 55.32 445.7 55.31C445.52 55.31 445.38 55.29 445.26 55.29C443.78 55.29 442.79 55.82 442.28 56.86C441.99 57.45 441.85 58.35 441.85 59.57V66.85H438.15V51.63H441.65V54.28C442.22 53.27 442.71 52.57 443.13 52.2C443.82 51.58 444.71 51.27 445.81 51.27C445.88 51.27 445.94 51.27 445.98 51.27" fill="#2483C5"/>
<path d="M457.36 51.9297C458.34 52.3997 459.15 53.1497 459.79 54.1797C460.37 55.0797 460.74 56.1297 460.91 57.3297C461.01 58.0297 461.05 59.0297 461.03 60.3497H450.8C450.85 61.8797 451.34 62.9497 452.27 63.5597C452.83 63.9397 453.51 64.1297 454.3 64.1297C455.14 64.1297 455.81 63.8997 456.34 63.4297C456.63 63.1797 456.88 62.8297 457.1 62.3797H460.85C460.75 63.2797 460.3 64.1997 459.49 65.1297C458.23 66.6097 456.47 67.3497 454.2 67.3497C452.33 67.3497 450.68 66.7297 449.25 65.4797C447.82 64.2297 447.1 62.1997 447.1 59.3797C447.1 56.7397 447.75 54.7297 449.04 53.3097C450.33 51.8997 452.01 51.1997 454.06 51.1997C455.29 51.1997 456.39 51.4397 457.37 51.9197M451.87 55.3597C451.35 55.9397 451.02 56.7297 450.89 57.7197H457.22C457.15 56.6597 456.83 55.8597 456.24 55.3097C455.65 54.7597 454.93 54.4897 454.06 54.4897C453.12 54.4897 452.39 54.7797 451.87 55.3597Z" fill="#2483C5"/>
<path d="M180.5 20.0199C179.98 18.1799 179.23 16.5099 178.29 15.0499C176.97 13.0599 174.22 11.4399 172.16 11.4399C172 11.4399 171.85 11.4499 171.71 11.4699C170.07 11.6799 169.59 12.0699 168.77 12.8499C168.1 13.4699 167.38 14.9299 167.32 16.5299C167.27 17.5699 167.48 18.5599 167.94 19.4799C167.98 19.5499 168.23 19.9099 168.23 19.9099L168.36 20.1099H132.26V23.6099H137.4V28.3199C137.39 28.7999 137.15 29.0699 136.74 29.0999C136.01 29.1499 135.42 28.7799 134.96 27.9999C134.8 27.6799 134.68 27.4299 134.56 27.1999C134.41 26.9099 134.28 26.6299 134.09 26.2499L131.16 28.2799C131.21 28.4799 131.48 28.9699 132.08 30.0799C132.8 31.4299 133.57 32.7299 134.37 33.9499C136.76 37.3999 138.4 39.6799 139.36 40.9099L142.18 38.2499C140.99 37.1199 139.57 35.2899 137.84 32.6499L137.73 32.4899L137.91 32.4599C138.7 32.3299 139.38 32.0499 139.93 31.6399C140.81 30.9499 141.23 29.9999 141.23 28.7299V23.5999H146.35V40.3699H150.22V23.6199H153.99V29.8899C153.99 31.4099 154.53 32.7199 155.61 33.7799C156.68 34.8599 157.95 35.3999 159.38 35.3999C160.02 35.3999 160.67 35.2599 161.32 34.9899L161.42 34.9499L161.46 35.0599C161.85 36.0799 162.43 36.9899 163.26 37.8499C163.77 38.3699 164.34 38.7999 165.04 39.1999L165.22 39.2999L160.78 42.2899L163.28 44.3499L167.45 41.5399L170.36 43.5999L172.26 42.2499L170.15 40.0999L170.37 40.0499C171.18 39.8799 171.86 39.6199 172.43 39.2799C173.42 38.6899 174.38 37.6899 175.36 36.2099L172.33 33.9099C171.43 35.7599 170.26 36.7199 168.86 36.7899C167.87 36.8299 166.95 36.4199 166.11 35.5499C165.26 34.6699 164.83 33.6699 164.83 32.5699C164.83 31.1399 165.36 30.4099 166.4 30.4099H171.13C172.1 30.4099 172.89 29.5799 172.89 28.5699V23.5999H176.88V40.3499H180.76V23.5999H186.8L186.83 23.6399C187.39 24.3499 187.63 26.4499 187.63 27.1399C187.63 28.4599 186.91 29.1299 185.49 29.1299C184.97 29.1299 184.45 29.0399 183.95 28.8499C183.9 31.2499 184.55 33.2699 185.89 34.8599C187.21 36.4199 188.86 37.2099 190.82 37.2099C192.21 37.2099 193.29 37.0099 194.04 36.6199L194.2 36.5299V40.3499H198.05V23.5999H200.73V20.0899H180.53L180.5 19.9999V20.0199ZM160.86 31.6299C160.57 31.8699 160.2 31.9899 159.76 31.9899C159.71 31.9899 159.67 31.9899 159.62 31.9899H159.56C158.25 31.8399 157.44 31.1799 157.44 30.2799V26.7999L160.96 31.5599L160.87 31.6399L160.86 31.6299ZM169.18 27.0399H165.77C164.43 27.0399 163.22 27.5799 162.31 28.5399L162.37 28.4799C162.28 28.6099 162.14 28.3899 162.14 28.3799L158.52 23.6199H169.19V27.0399H169.18ZM172.75 20.0999C172.5 19.9799 171.82 19.3799 171.52 18.7999C171.19 18.0999 171.03 17.4199 171.05 16.7699C171.08 16.2199 171.31 15.7699 171.75 15.4299C172.18 15.0999 172.67 14.9399 173.24 14.9699C174.8 15.0399 176.02 16.7199 176.84 19.9599L176.88 20.1199H172.75V20.0999ZM188.39 32.0999C189.4 31.7499 190.14 31.2099 190.64 30.4599L190.69 30.3899C190.74 30.3199 190.78 30.2499 190.83 30.1699C190.94 29.9599 191.03 29.7399 191.11 29.5199C191.14 29.4199 191.18 29.2999 191.22 29.1799C191.36 28.6899 191.43 28.1499 191.43 27.5699C191.43 26.7199 191.27 24.6099 190.99 23.7799V23.7399V23.6199H191.1L194.22 23.6099V31.9399C194.01 32.4099 193.52 32.8499 192.7 33.2699C192.32 33.4699 192.01 33.5999 191.73 33.6799C191.42 33.7699 191.13 33.8199 190.87 33.8199C190.78 33.8199 190.69 33.8199 190.6 33.7999C190.31 33.7499 190.07 33.6899 189.88 33.6199C189.44 33.4699 189.06 33.2199 188.73 32.8699C188.65 32.7899 188.59 32.6999 188.51 32.6099C188.46 32.5499 188.42 32.4799 188.37 32.4099C188.35 32.3799 188.33 32.3399 188.31 32.3099L188.18 32.1099H188.4L188.39 32.0999Z" fill="#2483C5"/>
<path d="M213.48 20.25H205.76V23.57H210.26V28.36C210.26 28.54 210.25 28.69 210.21 28.82C210.15 29.02 209.98 29.26 209.56 29.26C209.2 29.22 208.89 28.96 208.62 28.48C208.5 28.29 208.3 27.84 208.03 27.16L205.4 29.14C205.81 30.06 207.01 32.06 208.96 35.08C210.43 37.34 211.44 38.74 211.98 39.49C212.15 39.72 212.27 39.89 212.36 40.02L215.2 37.66C214.63 36.87 214.09 36.28 213.56 35.7C213.22 35.33 212.9 34.99 212.59 34.59C212.03 33.8 211.57 33.16 211.2 32.68L211 32.42L211.3 32.33C212.14 32.09 212.8 31.61 213.26 30.91C213.71 30.26 213.93 29.56 213.93 28.78V23.57H217.63V29.04L214.93 29L216.55 32.14H217.63V38.66L217.48 38.71C216.88 38.9 216.36 39.17 215.92 39.54C214.99 40.29 214.52 41.33 214.52 42.65C214.52 43.84 214.94 44.85 215.78 45.67C216.64 46.5 217.64 46.92 218.82 46.96H218.94C219.78 46.96 220.71 46.71 221.75 46.18L220.36 43.78C219.83 44.12 219.36 44.3 219.01 44.3C218.38 44.3 217.72 43.91 217.72 43.27C217.72 42.54 218.44 41.72 219.4 41.72C220.74 41.76 221.69 42.75 222.9 44.13C222.9 44.13 222.93 44.16 224.25 46.06L227.17 44.22C226.64 43.52 224.86 41.21 223.98 40.41C223.22 39.71 222.37 39.19 221.47 38.86L221.33 38.81V23.58H235.79V31.18C235.79 31.4 235.64 31.79 234.54 33.01C233.54 34.09 232.63 34.61 231.75 34.61C230.87 34.61 230.46 34.15 230.46 33.28C230.46 32.58 230.72 31.87 231.24 31.15C231.94 30.18 232.14 30.18 232.24 30.18C232.24 30.18 233.52 30.21 233.92 30.21V27H224.63V30.24H227.95L227.72 30.58C227.15 31.45 226.86 32.4 226.86 33.4C226.86 34.71 227.29 35.78 228.14 36.59C229.01 37.4 230.14 37.81 231.5 37.81C232.68 37.81 234.02 37.3 235.49 36.3L235.8 36.09V40.23H239.51V23.57H251.42V27.78H243.49C242.41 27.78 241.91 28.31 241.91 29.46C241.91 29.78 242.21 30.56 243.64 32.43C245.13 34.37 245.81 34.68 246.09 34.7H246.17C246.64 34.7 246.96 34.47 247.15 33.98C247.29 33.68 247.35 33.39 247.35 33.09V31.23H251.4V40.26H255.11V23.56H258.61V40.26H262.33V23.56H265.01V20.25H213.59L213.49 20.23L213.48 20.25Z" fill="#2483C5"/>
<path d="M288.07 20.19C287.13 18.77 286.25 17.59 285.37 16.61C282.76 13.73 280.27 12.27 277.99 12.27C276.06 12.27 274.52 12.81 273.41 13.88C272.31 14.93 271.74 16.36 271.71 18.14C271.71 18.68 271.8 19.3 271.96 20C271.98 20.07 272.07 20.27 272.01 20.27H269.43V23.59H271.97C272.08 23.59 272.17 23.69 272.17 23.81V35.07C272.17 35.07 272.18 35.12 272.18 35.14V40.27H275.86V23.81C275.86 23.69 275.95 23.59 276.06 23.59H286.74C286.85 23.59 286.94 23.69 286.94 23.81V32.83C286.94 33.07 286.74 33.36 286.29 33.77C285.76 34.24 284.69 34.45 284.09 34.45H283.98C283.41 34.43 282.88 34.2 282.42 33.77C281.97 33.34 281.74 32.75 281.74 32.03C281.74 31.31 281.95 30.75 282.35 30.28C282.75 29.83 283.27 29.6 283.89 29.6C284.42 29.6 284.89 29.73 285.44 29.95L285.11 26.81C284.21 26.61 283.71 26.51 283.4 26.51C281.96 26.51 280.73 27.04 279.75 28.08C278.77 29.12 278.27 30.43 278.27 32C278.27 33.75 278.86 35.18 280.02 36.24C281.04 37.21 282.3 37.7 283.77 37.7C283.84 37.7 283.92 37.7 283.99 37.7C284.7 37.69 285.99 37.52 286.66 37.2C286.73 37.17 286.94 36.99 286.94 37.06V40.28H290.62V23.82C290.62 23.7 290.71 23.6 290.82 23.6H306.46C306.57 23.6 306.66 23.7 306.66 23.82V26.01C306.66 26.13 306.57 26.23 306.46 26.23H296C295.39 26.23 294.84 26.47 294.37 26.96C293.9 27.45 293.67 28.02 293.67 28.65C293.67 29.56 294.12 31.16 295.37 32.67C296.43 33.95 297.36 34.6 298.11 34.6C298.15 34.6 298.18 34.6 298.21 34.6C298.42 34.58 298.79 34.45 299.34 34.2C299.95 33.92 300.33 33.79 300.56 33.79C300.75 33.79 301.17 33.87 301.17 34.57C301.17 35.4 300.79 36.1 300.04 36.65C299.44 37.11 299.08 37.31 298.86 37.31C298.74 37.31 298.66 37.25 298.62 37.2C297.28 35.76 296.19 35.03 295.38 35.03C294.8 35.03 294.33 35.23 293.94 35.64C293.56 36.03 293.37 36.53 293.37 37.12C293.37 38.05 293.71 38.78 294.39 39.29C294.98 39.77 295.73 40.04 296.68 40.09C296.92 40.11 297.15 40.09 297.36 40.05H297.4C297.46 40.05 297.51 40.07 297.55 40.11C297.9 40.51 300.07 42.84 300.48 43.14L303.05 40.36C302.27 40.17 301.04 39.65 300.61 39.38C300.57 39.38 301.6 39.01 301.6 39.01C302.21 38.81 302.79 38.4 303.32 37.77C304.18 36.8 304.58 35.64 304.57 34.21C304.55 32.11 303.67 31.13 301.83 31.13C301.51 31.13 301.04 31.22 300.39 31.41C299.72 31.61 299.23 31.7 298.89 31.7C298.4 31.7 297.95 31.43 297.6 30.91C297.44 30.68 297.39 30.05 297.39 29.97C297.39 29.82 297.45 29.47 298.01 29.47H306.44C306.55 29.47 306.64 29.57 306.64 29.69V40.28H310.34V40.1V23.82C310.34 23.7 310.43 23.6 310.54 23.6H313.72C313.83 23.6 313.92 23.7 313.92 23.82V36.44C313.92 36.44 313.93 36.49 313.93 36.52V40.28H317.62V23.82C317.62 23.7 317.71 23.6 317.82 23.6H328.99C329.1 23.6 329.19 23.7 329.19 23.82V27.59C329.19 27.71 329.1 27.81 328.99 27.81H321.28C320.2 27.81 319.7 28.35 319.7 29.49C319.7 29.77 319.93 30.52 321.43 32.46C322.84 34.3 323.53 34.71 323.87 34.73H323.93C324.42 34.73 324.74 34.5 324.94 34.01C325.08 33.71 325.15 33.42 325.15 33.13V31.49C325.15 31.37 325.24 31.27 325.35 31.27H328.99C329.1 31.27 329.19 31.37 329.19 31.49V36.45C329.19 36.45 329.19 36.5 329.19 36.52V40.28H332.88V23.82C332.88 23.7 332.97 23.6 333.08 23.6H335.47V20.29H288.18C288.12 20.29 288.05 20.26 288.02 20.2M283.98 20.19C283.94 20.26 283.88 20.3 283.81 20.3H278.42C278.42 20.3 278.38 20.3 278.36 20.29H275.38C275.38 20.29 275.33 20.22 275.31 20.13C275.15 19.46 275.08 18.94 275.08 18.47C275.11 16.52 276.05 15.53 277.86 15.53C279.46 15.53 281.01 16.33 282.48 17.9C283.21 18.72 283.7 19.4 283.99 19.99C284.02 20.06 284.02 20.14 283.99 20.21" fill="#2483C5"/>
<path d="M340.65 20.3497V23.6697H346.59V32.6197L346.52 32.7097C345.95 33.4897 345.21 33.8597 344.24 33.8597C343.62 33.8297 343.15 33.5597 342.78 33.0397C342.42 32.5697 342.25 31.9997 342.27 31.2997C342.33 30.1097 342.71 29.3697 343.43 29.0597C343.63 28.9797 344.02 28.9397 344.72 28.9197L344.21 25.9397C342.4 25.9897 341.04 26.4997 340.17 27.4397C339.35 28.3297 338.93 29.6597 338.94 31.3897C338.94 33.0997 339.44 34.4697 340.42 35.4897C341.4 36.5297 342.6 37.0397 344.08 37.0397C344.78 37.0297 345.45 36.8797 346.09 36.6197L346.61 36.3997V40.2697H350.1V32.8897L350.06 32.7197V31.0397C350.06 30.7897 350.17 30.5797 350.83 29.8997C351.34 29.4097 351.88 29.1597 352.41 29.1597C352.94 29.1597 353.38 29.4197 353.69 29.8997C353.97 30.3597 354.11 30.8597 354.11 31.4297C354.11 33.1697 353.36 34.6497 351.89 35.8497L354.13 38.2197C354.26 38.0997 354.49 37.8897 354.85 37.5097C355.59 36.7297 356.19 35.8897 356.63 35.0297C357.25 33.8297 357.56 32.5697 357.54 31.2797C357.51 29.8697 357.03 28.6397 356.1 27.6397C355.18 26.6297 354.08 26.1197 352.73 26.0997C351.95 26.0997 351.24 26.3097 350.62 26.7297L350.03 27.1197V23.6797H368.92V26.1097H364.21C363.1 26.1197 362.09 26.5797 361.22 27.4897C360.37 28.3497 359.94 29.3997 359.94 30.6397C359.93 33.0797 360.91 34.9297 362.85 36.1397L363.46 36.5197L360.67 38.0897L362.7 41.0797L367.52 37.5197L367.87 37.5397C368.08 37.5497 368.29 37.5697 368.51 37.5697H368.73L369.49 38.9797C369.72 39.4697 369.86 39.8897 369.91 40.2897H373.37C373.37 40.0897 372.95 38.9497 372.62 38.3997C372.3 37.8797 371.98 37.3997 371.64 36.8297L371.46 36.5297L371.71 36.2997C372.37 35.6797 372.71 34.8697 372.71 33.8697C372.7 33.1997 372.46 32.6197 372.02 32.1297C371.56 31.6297 371.05 31.3897 370.46 31.3897C369.65 31.3897 369.01 31.7397 368.56 32.4197C368.28 32.8297 368.09 33.3497 368.01 33.9597C368.01 34.0197 367.98 34.0997 367.96 34.1697C367.94 34.2297 367.93 34.2597 367.93 34.2997L367.9 34.6197L367.61 34.6697C367.42 34.6997 367.19 34.6897 366.95 34.6697C366.33 34.5897 365.7 34.3197 365.05 33.8697C363.93 33.0797 363.41 32.0797 363.44 30.8197C363.48 29.3697 364.35 29.1497 364.86 29.1497H371C371.42 29.1397 371.81 28.9597 372.11 28.6397C372.39 28.3297 372.54 27.9297 372.54 27.4997V23.6697H374.68V20.3497H355.96L355.93 20.3097L349.25 11.7397L346.76 13.8197L352.76 20.1097L353.03 20.3597H340.65V20.3497Z" fill="#2483C5"/>
<path d="M360.99 14.0801H357.53V17.4701H360.99V14.0801Z" fill="#2483C5"/>
</svg>
