<svg id="Capa_1" enable-background="new 0 0 512.711 512.711" height="512" viewBox="0 0 512.711 512.711" width="512" xmlns="http://www.w3.org/2000/svg"><g><path d="m360.434 44.018-152.49 173.102-163.926 143.314c-17.176-17.176-17.176-45.024 0-62.2l254.216-254.216c17.176-17.176 45.024-17.176 62.2 0z" fill="#fdb4ba"/><path d="m468.692 152.277-181.623 161.01-134.792 155.405c17.176 17.176 45.024 17.176 62.2 0l254.216-254.216c17.175-17.175 17.175-45.023-.001-62.199z" fill="#fdb4ba"/><path d="m504.503 116.466-388.037 388.037c-10.943 10.943-28.685 10.943-39.629 0l-68.63-68.63c-10.943-10.943-10.943-28.685 0-39.629l388.038-388.037c10.943-10.943 28.685-10.943 39.629 0l68.63 68.63c10.942 10.943 10.942 28.686-.001 39.629z" fill="#fe646f"/><path d="m391.909 12.543-1.705 1.705 35.621 35.621c25.837 25.837 25.837 67.727 0 93.564l-355.029 355.029 1.705 1.705c13.338 13.338 34.963 13.338 48.3 0l379.366-379.366c13.338-13.338 13.338-34.963 0-48.3l-59.958-59.958c-13.338-13.338-34.962-13.338-48.3 0z" fill="#fd4755"/><g fill="#f3f0f3"><path d="m180.168 293.981c-3.017-3.019-7.912-3.018-10.931 0-3.018 3.019-3.018 7.913.001 10.931l30.819 30.818c.884.884 1.265 2.129.919 3.227-.714 2.265-3.231 2.959-5.748 3.047-3.37.118-6.131 2.699-6.313 6.067-.009.159-.017.318-.026.476-.2 3.709 2.712 6.902 6.427 6.922 8.002.042 17.449-2.277 20.523-12.261 1.99-6.464.001-13.556-4.851-18.409z"/><path d="m172.145 367.843-10.633 10.634-8.173-8.173 9.447-9.446c3.019-3.018 3.019-7.912.001-10.931-3.019-3.019-7.914-3.019-10.931 0l-9.447 9.447-8.174-8.173 10.634-10.633c3.019-3.019 3.019-7.913.001-10.932-3.018-3.018-7.913-3.019-10.931 0l-16.1 16.099c-1.45 1.45-2.265 3.416-2.265 5.466s.814 4.016 2.265 5.466l19.099 19.099c.002.001.003.004.005.005s.004.003.005.005l19.099 19.1c1.51 1.509 3.488 2.264 5.466 2.264s3.956-.755 5.466-2.264l16.099-16.099c3.018-3.018 3.018-7.913 0-10.931-3.02-3.022-7.914-3.022-10.933-.003z"/><path d="m248.967 291.021-10.633 10.634-8.174-8.173 9.447-9.447c3.019-3.018 3.019-7.912.001-10.931s-7.913-3.019-10.931 0l-9.447 9.447-8.174-8.173 10.634-10.634c3.018-3.018 3.018-7.913 0-10.931-3.019-3.018-7.913-3.018-10.932 0l-16.099 16.099c-1.449 1.449-2.264 3.415-2.264 5.466 0 2.05.814 4.016 2.264 5.466l38.209 38.209c1.45 1.45 3.416 2.264 5.466 2.264s4.016-.814 5.466-2.264l16.099-16.1c3.018-3.019 3.018-7.913-.001-10.931-3.018-3.021-7.912-3.02-10.931-.001z"/><path d="m378.938 161.049-10.633 10.634-8.172-8.172 9.447-9.447c3.018-3.019 3.018-7.913-.001-10.931-3.017-3.019-7.912-3.018-10.931 0l-9.446 9.447-8.173-8.173 10.634-10.634c3.018-3.018 3.018-7.913 0-10.931-3.019-3.018-7.913-3.018-10.932 0l-16.099 16.099c-3.018 3.018-3.018 7.913 0 10.931l38.208 38.208c1.51 1.509 3.488 2.264 5.466 2.264s3.956-.755 5.466-2.264l16.099-16.099c3.018-3.018 3.018-7.913 0-10.931-3.02-3.02-7.913-3.02-10.933-.001z"/><path d="m420.632 92.08h-.001c-14.459-14.46-32.444-15.906-44.751-3.599l-10.599 10.598c-1.451 1.451-2.266 3.42-2.264 5.473s.82 4.02 2.274 5.469c0 0 .014.014.023.022.002.002.004.005.006.007l36.773 36.773c.343.343.712.641 1.098.906 1.4 1.212 3.19 1.891 5.053 1.891h.029c2.05-.008 4.014-.83 5.458-2.285.319-.322 7.85-7.913 10.823-10.99 11.483-11.894 9.833-30.51-3.922-44.265zm-7.199 33.523c-1.211 1.254-3.258 3.336-5.238 5.343-4.379-4.351-10.261-10.199-13.287-13.226-2.538-2.538-8.666-8.646-13.22-13.186l5.123-5.123c8.949-8.95 19.783.492 22.889 3.599 6.47 6.471 10.133 15.966 3.733 22.593z"/><path d="m300.879 231.128c-4.253.375-7.396 4.126-7.021 8.379.06.693.072 1.383.033 2.053-.199 3.444-1.715 6.604-4.502 9.392-7.617 7.617-20.012 7.618-27.629 0-3.691-3.69-5.723-8.596-5.723-13.815s2.032-10.124 5.723-13.815c2.769-2.769 6.252-4.624 10.075-5.363 4.192-.811 6.931-4.866 6.12-9.058-.811-4.191-4.864-6.934-9.057-6.12-6.863 1.328-13.111 4.651-18.069 9.61-6.61 6.609-10.251 15.398-10.251 24.746 0 9.347 3.64 18.136 10.251 24.746 6.822 6.822 15.783 10.233 24.745 10.233s17.924-3.411 24.747-10.233c5.471-5.471 8.584-12.189 9.004-19.427.083-1.418.059-2.866-.067-4.307-.376-4.252-4.125-7.391-8.379-7.021z"/><path d="m308.183 176.899 5.225-5.225c3.018-3.018 3.018-7.913 0-10.931-3.019-3.018-7.913-3.019-10.932 0l-21.296 21.295c-3.018 3.018-3.018 7.913 0 10.931 1.51 1.51 3.487 2.264 5.466 2.264 1.978 0 3.956-.755 5.466-2.264l5.138-5.138 33.095 33.094c1.51 1.509 3.488 2.264 5.466 2.264s3.956-.755 5.466-2.264c3.018-3.018 3.018-7.913 0-10.931z"/><path d="m138.165 405.884-19.575-1.248c1.338-2.83 2.113-5.913 2.213-9.106.189-6.087-2.014-11.747-6.203-15.936h-.001c-8.54-8.54-22.69-8.284-31.54.567l-10.248 10.248c-.001 0-.001.001-.001.001-.004.004-.008.007-.012.011-3.018 3.018-3.018 7.913 0 10.931l38.56 38.56c1.51 1.509 3.488 2.264 5.466 2.264s3.956-.755 5.466-2.264c3.018-3.018 3.018-7.913 0-10.931l-9.205-9.205 24.094 1.536c.168.011.334.016.499.016 4.045 0 7.446-3.146 7.706-7.238.274-4.261-2.959-7.935-7.219-8.206zm-44.175-14.792c2.777-2.777 7.208-3.036 9.679-.567 1.538 1.538 1.714 3.494 1.682 4.523-.059 1.906-.88 3.785-2.25 5.156-1.123 1.123-2.938 2.951-4.724 4.755-1.749-1.732-3.508-3.477-4.586-4.555-.923-.923-2.732-2.724-4.564-4.547z"/></g></g></svg>